<svg width="600" height="530" viewBox="0 0 600 530" fill="none" xmlns="http://www.w3.org/2000/svg">
<path d="M87.6146 140.602C96.3146 130.602 102.215 115.402 97.9146 102.402C94.5146 92.3024 84.0146 83.0024 73.2146 82.5024C63.7146 79.5024 53.1146 81.6024 44.5146 87.2024C32.6146 94.9024 27.4146 107.602 31.1146 121.402C37.5146 145.602 68.3146 162.602 87.6146 140.602Z" fill="#A8351A"/>
<path d="M299.215 56.7024C313.615 64.8024 327.915 56.4024 334.815 43.2024C342.215 29.0024 334.915 9.20242 320.515 2.30242C308.715 -3.39758 288.815 1.70242 286.815 15.2024C286.415 15.8024 285.915 16.4024 285.615 17.0024C278.515 30.3024 286.515 49.5024 299.215 56.7024Z" fill="#A8351A"/>
<path d="M226.315 121.302C222.315 113.202 213.415 109.202 204.715 109.002C195.715 108.802 186.215 112.502 181.715 120.702C176.615 130.102 179.915 140.702 186.415 148.302C188.615 150.902 192.815 152.102 196.215 151.502C196.415 151.602 196.615 151.702 196.815 151.802C205.215 155.302 214.515 152.602 221.015 146.702C228.215 140.202 230.715 130.002 226.315 121.302Z" fill="#A8351A"/>
<path d="M435.415 47.5024C433.515 36.2024 424.315 27.0024 412.515 26.6024C401.215 26.2024 392.315 35.6024 389.715 46.0024C386.815 57.3024 390.815 70.4024 399.515 78.1024C409.715 87.2024 424.715 85.2024 430.915 72.5024C431.915 70.4024 432.515 67.9024 432.415 65.4024C435.315 60.1024 436.415 53.6024 435.415 47.5024Z" fill="#A8351A"/>
<path d="M73.2149 250.702C74.8149 251.302 76.8149 251.402 78.5149 251.502C80.3149 251.502 82.1149 251.202 83.8149 250.602C87.8149 249.202 90.9149 247.002 93.4149 243.702C95.9149 240.402 97.4149 236.602 97.5149 232.402C97.6149 227.602 95.6149 223.202 92.4149 219.702C90.2149 217.402 87.0149 215.702 84.0149 214.802C79.6149 213.602 74.8149 214.202 70.9149 216.402C66.5149 218.902 62.8149 224.302 63.0149 229.402C63.0149 230.002 63.2149 230.602 63.2149 231.202C63.1149 231.602 62.9149 232.002 62.8149 232.302C61.9149 236.102 62.1149 240.402 64.3149 243.702C66.5149 247.302 69.4149 249.402 73.2149 250.702ZM76.2149 243.002C76.1149 243.002 76.1149 243.002 76.0149 243.002H75.9149C76.0149 243.002 76.1149 243.002 76.2149 243.002Z" fill="#A8351A"/>
<path d="M24.515 313.902C23.515 313.202 22.615 312.402 21.615 311.702C19.415 310.402 16.915 309.702 14.315 309.702C12.315 309.602 10.515 310.002 8.81499 310.902C7.01499 311.502 5.51498 312.502 4.21498 313.902C2.81498 315.202 1.81498 316.702 1.21498 318.502C0.314982 320.202 -0.0849995 322.102 0.0150005 324.002C0.215001 325.302 0.315001 326.502 0.515001 327.802C1.215 330.202 2.41498 332.302 4.21498 334.102C5.21498 334.802 6.11501 335.602 7.11501 336.302C9.31501 337.602 11.815 338.302 14.415 338.302C16.415 338.402 18.215 338.002 19.915 337.102C21.715 336.502 23.215 335.502 24.515 334.102C25.915 332.802 26.915 331.302 27.515 329.502C28.415 327.802 28.815 325.902 28.715 324.002C28.515 322.702 28.415 321.502 28.215 320.202C27.515 317.802 26.215 315.702 24.515 313.902Z" fill="#A8351A"/>
<path d="M124.515 284.102C119.015 283.902 113.615 286.902 110.715 291.602C109.115 294.102 108.115 297.302 108.515 300.202C108.915 303.102 110.115 305.102 111.815 307.302C112.715 308.502 114.215 309.102 115.815 309.402C119.815 313.202 125.515 314.502 130.815 312.302C137.315 309.602 140.515 302.002 138.715 295.302C137.115 288.902 131.015 284.302 124.515 284.102ZM126.115 304.402C126.715 303.602 126.615 303.702 126.115 304.402Z" fill="#A8351A"/>
<path d="M220.215 274.602C226.915 277.802 234.815 277.702 240.815 271.602C247.015 265.402 250.915 254.302 248.315 245.802C245.215 235.802 234.815 232.302 225.215 233.102C214.915 234.002 205.815 239.202 204.115 250.202C202.715 259.402 203.915 272.702 214.915 275.002C216.715 275.402 218.615 275.202 220.215 274.602Z" fill="#A8351A"/>
<path d="M280.515 197.702C289.315 201.302 300.015 198.702 304.815 190.002C309.815 180.902 307.115 169.502 299.515 162.702C295.415 159.002 290.515 156.802 285.015 157.002C279.915 157.202 276.115 159.702 273.915 163.402C269.015 166.402 266.115 172.302 266.615 178.702C267.215 187.202 272.715 194.502 280.515 197.702Z" fill="#A8351A"/>
<path d="M384.015 150.202C389.215 149.202 393.715 145.102 395.015 139.702C398.815 123.702 376.315 113.302 366.815 126.902C362.815 132.702 361.215 141.202 364.915 147.602C368.715 154.002 379.415 157.902 384.015 150.202ZM382.215 137.602C382.115 137.402 382.115 137.402 382.215 137.602Z" fill="#A8351A"/>
<path d="M375.415 290.302C385.115 284.102 391.115 272.403 390.315 259.403C389.215 241.703 373.715 231.202 357.515 229.802C352.915 228.102 348.015 227.602 343.215 229.102C339.515 230.202 336.215 232.303 333.415 235.003C328.715 237.903 325.115 242.202 323.415 248.302C320.515 258.702 320.115 270.703 326.515 279.903C336.015 293.802 364.215 306.402 375.415 290.302Z" fill="#A8351A"/>
<path d="M447.815 222.002C448.915 222.102 450.015 221.902 451.015 221.702C458.115 222.002 464.815 216.202 464.715 208.802C464.615 202.502 459.915 196.202 453.715 194.602C446.115 192.702 437.615 196.402 435.215 204.202C433.815 208.702 435.815 212.902 439.115 215.302C439.815 219.402 444.015 221.702 447.815 222.002Z" fill="#A8351A"/>
<path d="M366.115 388.902C376.915 388.802 383.015 376.202 379.715 366.802C376.615 358.002 367.115 352.002 357.815 355.402C353.115 357.202 349.415 360.202 347.415 364.902C344.915 370.802 346.315 377.102 350.715 381.802C352.215 383.402 354.215 384.402 356.415 384.902C358.915 387.502 362.515 388.902 366.115 388.902Z" fill="#A8351A"/>
<path d="M466.116 400.603C464.916 399.403 463.615 398.503 462.015 398.003C460.515 397.203 458.816 396.803 457.116 396.903C454.816 396.903 452.715 397.503 450.715 398.603C450.315 398.803 449.915 399.103 449.515 399.303C448.015 400.103 446.915 401.203 446.015 402.503C444.915 403.703 444.116 405.103 443.816 406.803C443.716 407.903 443.515 409.003 443.415 410.103C443.315 411.803 443.715 413.403 444.515 414.903C444.815 416.003 445.316 416.903 446.116 417.703C447.016 419.103 448.216 420.103 449.616 420.903C450.616 421.303 451.616 421.703 452.616 422.203C454.816 422.803 457.016 422.803 459.316 422.203C459.716 422.103 460.216 422.003 460.616 421.903C462.816 421.303 464.615 420.203 466.215 418.603C466.915 417.703 467.515 416.903 468.215 416.003C469.415 414.003 469.915 411.903 469.915 409.603C470.015 407.803 469.616 406.203 468.816 404.703C468.316 403.103 467.416 401.703 466.116 400.603Z" fill="#A8351A"/>
<path d="M275.515 438.202C271.515 437.102 267.615 436.602 264.315 437.402C253.715 439.802 249.015 451.402 247.615 461.002C244.415 482.702 260.315 507.602 284.715 503.502C308.915 499.402 322.915 468.302 304.915 449.702C298.215 442.802 286.515 438.402 275.515 438.202Z" fill="#A8351A"/>
<path d="M89.715 401.802C84.115 399.102 77.515 398.402 71.915 401.602C66.615 404.702 64.315 410.402 65.415 416.002C65.315 416.202 65.115 416.302 65.015 416.402C60.615 423.602 63.315 432.502 68.415 438.502C77.715 449.602 96.115 451.302 103.115 436.802C106.115 430.602 107.815 423.202 105.515 416.502C103.015 409.602 96.015 404.802 89.715 401.802Z" fill="#A8351A"/>
<path d="M246.815 353.802C246.515 353.402 246.115 353.002 245.715 352.602C243.615 346.502 237.015 341.802 230.315 342.102C218.515 342.702 211.415 355.502 217.715 365.802C220.915 371.002 226.915 374.102 233.015 373.902C239.515 373.702 247.315 369.902 248.715 363.002C249.415 359.602 249.015 356.602 246.815 353.802Z" fill="#A8351A"/>
<path d="M524.515 261.303C528.115 262.803 532.215 263.203 536.115 262.303C550.815 258.803 556.915 239.803 546.115 228.803C535.615 218.103 516.115 220.403 510.815 235.303C506.815 246.203 514.615 258.203 524.515 261.303ZM527.515 241.403C527.415 241.603 527.415 241.703 527.315 241.803C527.315 241.703 527.415 241.603 527.415 241.503C527.415 241.503 527.415 241.503 527.515 241.403ZM530.415 237.003C530.615 237.003 530.815 237.003 531.015 237.003C530.315 237.003 529.615 237.003 528.815 237.103C529.715 237.103 530.215 237.003 530.415 237.003Z" fill="#A8351A"/>
<path d="M594.915 99.0024C579.815 80.3024 551.015 93.5024 550.615 116.102C550.515 118.902 551.015 121.602 551.715 124.302C552.315 127.502 553.715 130.602 556.015 133.102C558.415 136.402 561.415 139.202 565.115 141.102C576.015 146.702 590.515 142.802 593.315 129.902C593.315 129.802 593.315 129.702 593.315 129.502C600.515 120.902 602.915 108.802 594.915 99.0024ZM577.115 116.002C577.715 115.802 577.515 115.502 577.115 116.002Z" fill="#A8351A"/>
<path d="M546.315 305.802C525.615 305.102 509.315 324.702 511.315 344.902C513.515 365.902 536.715 384.002 557.515 376.002C561.015 374.602 564.115 372.502 566.715 370.002C572.915 365.002 577.415 357.902 579.615 350.302C585.915 329.102 568.215 306.402 546.315 305.802Z" fill="#A8351A"/>
<path d="M372.915 482.403C368.815 483.203 365.315 485.303 362.715 488.403C362.415 488.603 362.115 488.703 361.815 488.803C354.815 492.803 350.715 501.003 351.215 509.003C351.815 518.503 358.215 526.003 367.315 528.703C376.315 531.403 387.115 529.603 394.015 522.903C401.115 516.003 403.615 505.203 399.315 496.203C394.815 487.103 383.015 480.303 372.915 482.403Z" fill="#A8351A"/>
</svg>
