<?xml version="1.0" encoding="utf-8"?>
<!-- Generator: Adobe Illustrator 24.2.0, SVG Export Plug-In . SVG Version: 6.00 Build 0)  -->
<!DOCTYPE svg PUBLIC "-//W3C//DTD SVG 1.1//EN" "http://www.w3.org/Graphics/SVG/1.1/DTD/svg11.dtd" [
	<!ENTITY ns_extend "http://ns.adobe.com/Extensibility/1.0/">
	<!ENTITY ns_ai "http://ns.adobe.com/AdobeIllustrator/10.0/">
	<!ENTITY ns_graphs "http://ns.adobe.com/Graphs/1.0/">
	<!ENTITY ns_vars "http://ns.adobe.com/Variables/1.0/">
	<!ENTITY ns_imrep "http://ns.adobe.com/ImageReplacement/1.0/">
	<!ENTITY ns_sfw "http://ns.adobe.com/SaveForWeb/1.0/">
	<!ENTITY ns_custom "http://ns.adobe.com/GenericCustomNamespace/1.0/">
	<!ENTITY ns_adobe_xpath "http://ns.adobe.com/XPath/1.0/">
]>
<svg version="1.1" id="Layer_1" xmlns:x="&ns_extend;" xmlns:i="&ns_ai;" xmlns:graph="&ns_graphs;"
	 xmlns="http://www.w3.org/2000/svg" xmlns:xlink="http://www.w3.org/1999/xlink" x="0px" y="0px" viewBox="0 0 1200 630"
	 style="enable-background:new 0 0 1200 630;" xml:space="preserve">
<style type="text/css">
	.st0{fill:#606060;}
</style>
<metadata>
	<sfw  xmlns="&ns_sfw;">
		<slices></slices>
		<sliceSourceBounds  bottomLeftOrigin="true" height="530" width="600" x="300" y="61.9"></sliceSourceBounds>
	</sfw>
</metadata>
<g>
	<path class="st0" d="M387.7,178.8c8.7-10,14.6-25.2,10.3-38.2c-3.4-10.1-13.9-19.4-24.7-19.9c-9.5-3-20.1-0.9-28.7,4.7
		c-11.9,7.7-17.1,20.4-13.4,34.2C337.6,183.8,368.4,200.8,387.7,178.8z"/>
	<path class="st0" d="M599.3,94.9c14.4,8.1,28.7-0.3,35.6-13.5c7.4-14.2,0.1-34-14.3-40.9c-11.8-5.7-31.7-0.6-33.7,12.9
		c-0.4,0.6-0.9,1.2-1.2,1.8C578.6,68.5,586.6,87.7,599.3,94.9z"/>
	<path class="st0" d="M526.4,159.5c-4-8.1-12.9-12.1-21.6-12.3c-9-0.2-18.5,3.5-23,11.7c-5.1,9.4-1.8,20,4.7,27.6
		c2.2,2.6,6.4,3.8,9.8,3.2c0.2,0.1,0.4,0.2,0.6,0.3c8.4,3.5,17.7,0.8,24.2-5.1C528.3,178.4,530.8,168.2,526.4,159.5z"/>
	<path class="st0" d="M735.5,85.7c-1.9-11.3-11.1-20.5-22.9-20.9c-11.3-0.4-20.2,9-22.8,19.4c-2.9,11.3,1.1,24.4,9.8,32.1
		c10.2,9.1,25.2,7.1,31.4-5.6c1-2.1,1.6-4.6,1.5-7.1C735.4,98.3,736.5,91.8,735.5,85.7z"/>
	<path class="st0" d="M373.3,288.9c1.6,0.6,3.6,0.7,5.3,0.8c1.8,0,3.6-0.3,5.3-0.9c4-1.4,7.1-3.6,9.6-6.9c2.5-3.3,4-7.1,4.1-11.3
		c0.1-4.8-1.9-9.2-5.1-12.7c-2.2-2.3-5.4-4-8.4-4.9c-4.4-1.2-9.2-0.6-13.1,1.6c-4.4,2.5-8.1,7.9-7.9,13c0,0.6,0.2,1.2,0.2,1.8
		c-0.1,0.4-0.3,0.8-0.4,1.1c-0.9,3.8-0.7,8.1,1.5,11.4C366.6,285.5,369.5,287.6,373.3,288.9z M376.3,281.2c-0.1,0-0.1,0-0.2,0
		c0,0-0.1,0-0.1,0C376.1,281.2,376.2,281.2,376.3,281.2z"/>
	<path class="st0" d="M324.6,352.1c-1-0.7-1.9-1.5-2.9-2.2c-2.2-1.3-4.7-2-7.3-2c-2-0.1-3.8,0.3-5.5,1.2c-1.8,0.6-3.3,1.6-4.6,3
		c-1.4,1.3-2.4,2.8-3,4.6c-0.9,1.7-1.3,3.6-1.2,5.5c0.2,1.3,0.3,2.5,0.5,3.8c0.7,2.4,1.9,4.5,3.7,6.3c1,0.7,1.9,1.5,2.9,2.2
		c2.2,1.3,4.7,2,7.3,2c2,0.1,3.8-0.3,5.5-1.2c1.8-0.6,3.3-1.6,4.6-3c1.4-1.3,2.4-2.8,3-4.6c0.9-1.7,1.3-3.6,1.2-5.5
		c-0.2-1.3-0.3-2.5-0.5-3.8C327.6,356,326.3,353.9,324.6,352.1z"/>
	<path class="st0" d="M424.6,322.3c-5.5-0.2-10.9,2.8-13.8,7.5c-1.6,2.5-2.6,5.7-2.2,8.6c0.4,2.9,1.6,4.9,3.3,7.1
		c0.9,1.2,2.4,1.8,4,2.1c4,3.8,9.7,5.1,15,2.9c6.5-2.7,9.7-10.3,7.9-17C437.2,327.1,431.1,322.5,424.6,322.3z M420,339.5
		C420,339.5,420,339.5,420,339.5C420,339.5,420,339.5,420,339.5C420,339.5,420,339.5,420,339.5z M426.2,342.6
		C426.2,342.6,426.2,342.6,426.2,342.6C426.8,341.8,426.7,341.9,426.2,342.6z"/>
	<path class="st0" d="M520.3,312.8c6.7,3.2,14.6,3.1,20.6-3c6.2-6.2,10.1-17.3,7.5-25.8c-3.1-10-13.5-13.5-23.1-12.7
		c-10.3,0.9-19.4,6.1-21.1,17.1c-1.4,9.2-0.2,22.5,10.8,24.8C516.8,313.6,518.7,313.4,520.3,312.8z"/>
	<path class="st0" d="M580.6,235.9c8.8,3.6,19.5,1,24.3-7.7c5-9.1,2.3-20.5-5.3-27.3c-4.1-3.7-9-5.9-14.5-5.7
		c-5.1,0.2-8.9,2.7-11.1,6.4c-4.9,3-7.8,8.9-7.3,15.3C567.3,225.4,572.8,232.7,580.6,235.9z"/>
	<path class="st0" d="M684.1,188.4c5.2-1,9.7-5.1,11-10.5c3.8-16-18.7-26.4-28.2-12.8c-4,5.8-5.6,14.3-1.9,20.7
		C668.8,192.2,679.5,196.1,684.1,188.4z M682.3,175.8C682.3,175.8,682.3,175.8,682.3,175.8C682.2,175.6,682.2,175.6,682.3,175.8z"/>
	<path class="st0" d="M675.5,328.5c9.7-6.2,15.7-17.9,14.9-30.9c-1.1-17.7-16.6-28.2-32.8-29.6c-4.6-1.7-9.5-2.2-14.3-0.7
		c-3.7,1.1-7,3.2-9.8,5.9c-4.7,2.9-8.3,7.2-10,13.3c-2.9,10.4-3.3,22.4,3.1,31.6C636.1,332,664.3,344.6,675.5,328.5z"/>
	<path class="st0" d="M747.9,260.2c1.1,0.1,2.2-0.1,3.2-0.3c7.1,0.3,13.8-5.5,13.7-12.9c-0.1-6.3-4.8-12.6-11-14.2
		c-7.6-1.9-16.1,1.8-18.5,9.6c-1.4,4.5,0.6,8.7,3.9,11.1C739.9,257.6,744.1,259.9,747.9,260.2z"/>
	<path class="st0" d="M666.2,427.1c10.8-0.1,16.9-12.7,13.6-22.1c-3.1-8.8-12.6-14.8-21.9-11.4c-4.7,1.8-8.4,4.8-10.4,9.5
		c-2.5,5.9-1.1,12.2,3.3,16.9c1.5,1.6,3.5,2.6,5.7,3.1C659,425.7,662.6,427.1,666.2,427.1z"/>
	<path class="st0" d="M766.2,438.8c-1.2-1.2-2.5-2.1-4.1-2.6c-1.5-0.8-3.2-1.2-4.9-1.1c-2.3,0-4.4,0.6-6.4,1.7
		c-0.4,0.2-0.8,0.5-1.2,0.7c-1.5,0.8-2.6,1.9-3.5,3.2c-1.1,1.2-1.9,2.6-2.2,4.3c-0.1,1.1-0.3,2.2-0.4,3.3c-0.1,1.7,0.3,3.3,1.1,4.8
		c0.3,1.1,0.8,2,1.6,2.8c0.9,1.4,2.1,2.4,3.5,3.2c1,0.4,2,0.8,3,1.3c2.2,0.6,4.4,0.6,6.7,0c0.4-0.1,0.9-0.2,1.3-0.3
		c2.2-0.6,4-1.7,5.6-3.3c0.7-0.9,1.3-1.7,2-2.6c1.2-2,1.7-4.1,1.7-6.4c0.1-1.8-0.3-3.4-1.1-4.9C768.4,441.3,767.5,439.9,766.2,438.8
		z"/>
	<path class="st0" d="M575.6,476.4c-4-1.1-7.9-1.6-11.2-0.8c-10.6,2.4-15.3,14-16.7,23.6c-3.2,21.7,12.7,46.6,37.1,42.5
		c24.2-4.1,38.2-35.2,20.2-53.8C598.3,481,586.6,476.6,575.6,476.4z"/>
	<path class="st0" d="M389.8,440c-5.6-2.7-12.2-3.4-17.8-0.2c-5.3,3.1-7.6,8.8-6.5,14.4c-0.1,0.2-0.3,0.3-0.4,0.4
		c-4.4,7.2-1.7,16.1,3.4,22.1c9.3,11.1,27.7,12.8,34.7-1.7c3-6.2,4.7-13.6,2.4-20.3C403.1,447.8,396.1,443,389.8,440z"/>
	<path class="st0" d="M546.9,392c-0.3-0.4-0.7-0.8-1.1-1.2c-2.1-6.1-8.7-10.8-15.4-10.5c-11.8,0.6-18.9,13.4-12.6,23.7
		c3.2,5.2,9.2,8.3,15.3,8.1c6.5-0.2,14.3-4,15.7-10.9C549.5,397.8,549.1,394.8,546.9,392z"/>
	<path class="st0" d="M824.6,299.5c3.6,1.5,7.7,1.9,11.6,1c14.7-3.5,20.8-22.5,10-33.5c-10.5-10.7-30-8.4-35.3,6.5
		C806.9,284.4,814.7,296.4,824.6,299.5z M830.4,279.2c0,0.2,0.1,0.4,0.1,0.5C830.5,279.6,830.4,279.4,830.4,279.2
		C830.4,279.2,830.4,279.2,830.4,279.2z M827.6,279.6c-0.1,0.2-0.1,0.3-0.2,0.4c0,0,0,0,0,0c0-0.1,0.1-0.2,0.1-0.3
		C827.5,279.7,827.5,279.7,827.6,279.6z M830.5,275.2c0.2,0,0.4,0,0.6,0c-0.7,0-1.4,0-2.2,0.1C829.8,275.3,830.3,275.2,830.5,275.2z
		"/>
	<path class="st0" d="M895,137.2c-15.1-18.7-43.9-5.5-44.3,17.1c-0.1,2.8,0.4,5.5,1.1,8.2c0.6,3.2,2,6.3,4.3,8.8
		c2.4,3.3,5.4,6.1,9.1,8c10.9,5.6,25.4,1.7,28.2-11.2c0-0.1,0-0.2,0-0.4C900.6,159.1,903,147,895,137.2z M877.2,154.2
		C877.6,153.7,877.8,154,877.2,154.2L877.2,154.2z"/>
	<path class="st0" d="M846.4,344c-20.7-0.7-37,18.9-35,39.1c2.2,21,25.4,39.1,46.2,31.1c3.5-1.4,6.6-3.5,9.2-6
		c6.2-5,10.7-12.1,12.9-19.7C886,367.3,868.3,344.6,846.4,344z"/>
	<path class="st0" d="M673,520.6c-4.1,0.8-7.6,2.9-10.2,6c-0.3,0.2-0.6,0.3-0.9,0.4c-7,4-11.1,12.2-10.6,20.2
		c0.6,9.5,7,17,16.1,19.7c9,2.7,19.8,0.9,26.7-5.8c7.1-6.9,9.6-17.7,5.3-26.7C694.9,525.3,683.1,518.5,673,520.6z"/>
</g>
</svg>
