<?xml version="1.0" encoding="utf-8"?>
<!-- Generator: Adobe Illustrator 24.2.0, SVG Export Plug-In . SVG Version: 6.00 Build 0)  -->
<!DOCTYPE svg PUBLIC "-//W3C//DTD SVG 1.0//EN" "http://www.w3.org/TR/2001/REC-SVG-20010904/DTD/svg10.dtd" [
	<!ENTITY ns_flows "http://ns.adobe.com/Flows/1.0/">
	<!ENTITY ns_extend "http://ns.adobe.com/Extensibility/1.0/">
	<!ENTITY ns_ai "http://ns.adobe.com/AdobeIllustrator/10.0/">
	<!ENTITY ns_graphs "http://ns.adobe.com/Graphs/1.0/">
	<!ENTITY ns_vars "http://ns.adobe.com/Variables/1.0/">
	<!ENTITY ns_imrep "http://ns.adobe.com/ImageReplacement/1.0/">
	<!ENTITY ns_sfw "http://ns.adobe.com/SaveForWeb/1.0/">
	<!ENTITY ns_custom "http://ns.adobe.com/GenericCustomNamespace/1.0/">
	<!ENTITY ns_adobe_xpath "http://ns.adobe.com/XPath/1.0/">
]>
<svg version="1.0" id="Layer_1" xmlns:x="&ns_extend;" xmlns:i="&ns_ai;" xmlns:graph="&ns_graphs;"
	 xmlns="http://www.w3.org/2000/svg" xmlns:xlink="http://www.w3.org/1999/xlink" xmlns:a="http://ns.adobe.com/AdobeSVGViewerExtensions/3.0/"
	 x="0px" y="0px" viewBox="0 0 1500 1500" enable-background="new 0 0 1500 1500" xml:space="preserve">
<metadata>
	<sfw  xmlns="&ns_sfw;">
		<slices></slices>
		<sliceSourceBounds  bottomLeftOrigin="true" height="135.24" width="1477.359" x="13.038" y="-817.787"></sliceSourceBounds>
	</sfw>
</metadata>
<path fill="#606060" d="M1490.396,746.054c0,0-12.132,4.664-12.958,5.767c-0.827,1.103-4.099,3.911-4.099,3.911
	s-4.997-1.431-6.375-1.707c-1.378-0.275-6.064,0.655-6.615,1.706c-0.552,1.051-2.481,4.358-3.583,4.634
	c-1.103,0.276-0.552-3.583-2.481-2.205c-1.929,1.378-4.41,4.685-4.41,4.685l-4.685,4.686l-33.443,22.326v-8.82l-6.616,3.675
	l-13.225,16.01c-0.49,0.593-1.068,1.108-1.715,1.526l-11.52,7.455l-4.41-6.616l-6.615,0.735h-5.881l-5.987,5.321
	c-0.417,0.371-0.792,0.787-1.118,1.241l-5.307,7.403v-8.085l-7.942-4.288c-0.151-0.082-0.305-0.159-0.461-0.229l-7.851-3.569
	l-2.285,3.998c-2.331,4.08-7.748,5.014-11.395,2.051c-6.672-5.422-12.247-14.003-12.781-15.604c-0.735-2.205-2.205-7.35-4.41-5.146
	c-2.205,2.205-7.349-4.996-7.349-4.996s-6.616-12.324-9.556-6.237c-2.94,6.088-7.35,14.908-7.35,14.908s-3.675-12.91-6.615-14.908
	c-2.94-1.997-2.94-1.997-2.94-1.997l-7.227-1.668c-1.514-0.349-3.101-0.222-4.54,0.366l-7.529,3.075
	c-0.365,0.149-0.718,0.326-1.056,0.531l-9.783,5.929c0,0-2.205-0.587-6.615,0c-1.55,0.206-3.191,0.794-4.666,1.469
	c-3.095,1.416-6.757,0.436-8.872-2.23l-12.359-15.582c-0.374-0.472-0.803-0.898-1.28-1.267l-11.043-8.579
	c0,0-4.353,2.908-7.321,4.92c-2.969,2.011-5.174,4.216-6.644,7.156c-1.47,2.94-8.086,4.41-8.086,4.41s-5.88-3.675-8.085-2.205
	c-2.205,1.47-7.35-3.675-10.29,0c-2.94,3.675-30.87-0.735-30.87-0.735s5.145-7.35,0-10.29c-5.146-2.94-5.146-2.94-5.146-2.94
	s-8.82,4.41-12.495,5.146c-3.675,0.735,7.35,2.205-8.085,2.94c-15.435,0.735-16.905,5.145-22.785,5.879
	c-3.691,0.462-13.754,5.036-20.734,8.378c-3.918,1.876-8.602,0.076-10.239-3.947l-0.6-1.475c-0.94-2.309-2.961-4.003-5.398-4.525
	l-6.395-1.371l-13.036-3.43c-0.607-0.16-1.18-0.395-1.731-0.695c-1.565-0.853-5.125-2.669-8.018-3.224
	c-3.827-0.735-3.827-6.616-3.827-6.616l-9.055,7.454c-1.601,1.317-3.647,1.91-5.704,1.658c-4.104-0.504-10.996-1.073-13.019,0.443
	c-2.939,2.206,3.159,2.941-5.879-0.735c-9.04-3.675-12.495-12.389-14.7-6.195c-2.205,6.195-21.315,10.605-22.05,8.4
	c-0.735-2.205-4.41-8.4-4.41-8.4l-8.635-2.143c-1.272-0.315-2.605-0.294-3.866,0.063l-7.344,2.08c0,0-8.086,8.4-10.291,6.195
	c-2.205-2.205-11.025-6.195-11.025-6.195s-2.205-1.049-5.145,0c-2.94,1.05-30.87-9.678-30.87-9.678s-2.205-2.129-4.41-5.623
	c-2.205-3.494-1.47-11.398-6.615-5.699c-5.146,5.699-8.086,5.699-12.496,5.699s-10.29,5.699-13.965,0
	c-3.676-5.699-5.88-15.409-8.086-7.704c-2.205,7.704-2.939,7.704-5.879,7.704c-2.94,0-53.568,7.913-55.86,7.531
	c-4.973-0.829-8.077-2.125-9.838-3.098c-1.143-0.632-2.057-1.532-2.741-2.643l-5.061-8.224v-7.35c0,0-7.349-8.82-8.085-6.615
	c-0.735,2.205-7.35,5.879-7.35,5.879l-9.555,7.35c0,0-5.88,1.845-10.29,7.17c-4.41,5.325,1.47,3.12-4.41,5.325
	c-3.725,1.397-12.741-4.875-18.849-9.66c-3.414-2.675-8.343-1.966-10.833,1.585c-2.305,3.285-4.883,7.069-6.333,9.545
	c-3.045,5.202-6.616,5.986-8.82,8.505l-3.675-9.24l-3.909-4.605c-0.811-0.955-1.817-1.734-2.986-2.184
	c-10.871-4.187-25.256-3.805-32.06-6.074c-6.616-2.205-22.874-7.717-22.874-8.819c0-0.818-2.579-5.881-4.811-10.241
	c-1.288-2.517-3.873-4.092-6.7-4.092h-13.023c0,0,0.523,2.205-8.819,0c-9.344-2.205-13.23-2.205-16.538,0
	c-3.308,2.205-11.026,3.307-11.026,3.307s-24.477,5.513-24.477,4.41c0-1.102-9.7-4.41-14.11-9.371c-4.41-4.961-9.923,0-9.923,0
	s-18.664,2.756-18.664,0c0-2.757-7.796-6.064-12.206,0c-2.042,2.808-5.504,5.735-8.631,8.068c-3.556,2.652-8.603,1.693-10.93-2.083
	l0,0c-2.546-4.13-8.234-4.769-11.699-1.372c-1.828,1.793-3.962,3.279-6.225,3.657c-3.848,0.641-7.696,0.537-10.242,0.336
	c-2.006-0.157-3.93,0.502-5.445,1.825c-3.161,2.759-8.512,7.357-10.773,8.864c-3.021,2.014-33.64,23.389-38.917,27.074
	c-0.536,0.375-0.96,0.772-1.384,1.27c-2.477,2.906-11.639,13.114-11.64,5.136c0-9.224-8.696-13.635-8.696-13.635
	s-4.408-6.974-7.716-6.987c-3.308-0.013-4.412-2.936-7.719-5.141c-3.307-2.205-11.025-7.717-11.025-7.717s-0.749-4.41-7.541,0
	l-18.92-2.206c-4.555-1.518-11.201-1.991-14.898-2.138c-1.787-0.071-3.445-0.775-4.749-1.999c-3.077-2.887-8.851-7.99-11.223-7.99
	c-3.307,0-25.358,6.616-27.562,3.308c-2.205-3.308-14.333-4.41-14.333-4.41l-17.405,1.088c-0.156,0.009-0.313,0.014-0.469,0.014
	h-25.001c-0.811,0-1.675-0.175-2.442-0.436c-7.813-2.657-9.912-0.456-12.012,3.744c-2.205,4.409-8.819,8.819-8.819,8.819
	c-6.616,5.513-28.612,15.008-28.612,15.008v-7.29c-11.078-7.717-15.488-9.922-16.591-14.332s-10.45-6.615-10.45-2.205
	c0,4.409-4.343-2.665-4.985-2.848c-0.643-0.184-4.869-1.929-5.513-0.919c-0.643,1.011-3.123,3.859-3.123,3.859l-3.216-0.551
	l-9.739-6.339l-1.837-3.399l-1.103-3.859l-21.774,5.608l24.991-10.908l0.891,6.991c0.307,2.411,1.759,4.522,3.897,5.677
	c2.71,1.463,6.073,3.251,6.237,3.197c0.276-0.092,4.318-8.269,19.294-9.831s18.926-0.459,19.295,0
	c0.367,0.459,0.827,4.226,0.275,7.534c-0.551,3.307,0.367,8.452,1.654,9.279c1.286,0.827,6.798-1.195,6.798-1.195l0.276,2.664
	c0,0-2.113,7.35-2.021,7.717c0.092,0.367,17.64-10.473,19.478-13.321c1.837-2.848,2.756,0.092,1.837-3.399
	c-0.919-3.491-1.378-3.399-0.459-5.145c0.919-1.746,4.042-8.82,4.042-8.82s6.524-2.389,6.891-2.481
	c0.368-0.092,2.573,3.767,6.983,3.491c4.41-0.275,15.937-0.735,16.329-0.735c0.392,0,1.219,1.286,5.17,0.643
	c3.951-0.643,18.467-5.604,18.467-5.604l4.961,9.003c0,0,6.707-1.011,7.166-0.827c0.459,0.184,27.378,5.054,29.217,4.594
	c1.837-0.459,17.548-6.155,17.823-5.972c0.276,0.184,8.178,6.339,8.453,6.432c0.276,0.092,18.651-2.021,19.11-2.205
	c0.459-0.184,30.594-8.912,31.237-8.912c0.643,0,10.474-0.735,10.474-0.735l-3.307,7.901c0,0,9.279-0.183,9.83-0.459
	c0.551-0.275,14.425-3.307,14.425-3.307l-1.287,13.506l-1.378,4.043c0,0,11.576-4.41,11.852-4.318
	c0.275,0.092,13.138,3.123,13.689,3.032c0.551-0.093,10.382-4.41,10.382-4.41s6.523,2.297,6.799,2.205
	c0.275-0.092,15.619-10.29,15.71-10.657c0.092-0.367,5.053-11.852,5.053-11.852s8.636-4.318,8.544-3.491
	c-0.091,0.827-3.583,12.128-3.583,12.128l8.819-2.359c0,0,26.088,3.277,32.249-2.602c6.16-5.878,6.983-12.587,6.983-12.587
	s0.367,0.367,0.643,0.643c0.276,0.276,2.39,6.707,4.502,7.258c2.113,0.551,9.095,1.471,14.241-0.091
	c3.907-1.187,8.716-2.161,10.803-2.56c0.714-0.137,1.41-0.164,2.134-0.09c3.162,0.32,12.259,1.316,14.074,2.375
	c2.205,1.287,13.321,8.178,14.241,7.901c0.919-0.275,1.929-4.594,3.399-6.615c1.469-2.021,4.318-4.961,4.318-4.961
	s8.361,5.604,9.463,5.971c1.103,0.368,7.902,1.103,8.269,1.195c0.209,0.053,3.357-1.588,6.035-3.012
	c2.361-1.256,5.188-1.169,7.464,0.236c3.51,2.167,8.33,5.108,8.736,5.165c0.643,0.092,7.074,1.195,7.809,1.47
	c0.514,0.193,6.633-2.44,10.275-4.044c1.747-0.769,3.695-0.837,5.497-0.207l7.648,2.673c0.555,0.195,1.045,0.427,1.541,0.744
	c2.68,1.72,12.078,7.764,12.157,8.001c0.091,0.275-1.103,8.452,5.88,8.636c6.982,0.183,12.036-1.012,13.781-0.735
	c1.745,0.275,9.463-0.827,9.463-0.827l9.912-2.307c0.495-0.115,0.929-0.258,1.39-0.471c2.155-0.991,8.998-4.127,9.462-4.205
	c0.552-0.091,15.986-1.378,17.732,2.665c1.745,4.042,0.919,6.063,0.459,6.891c-0.459,0.827-2.297,3.95-2.297,3.95
	s13.965-10.75,16.905-11.484s6.155-1.195,6.155-1.195s3.308,1.287,4.227,3.675c0.919,2.389,1.011,4.593,1.011,4.593l7.166,2.941
	l0.367,2.297c0,0-2.664,11.209-2.848,11.76c-0.184,0.551,14.792-18.376,14.424-18.376c-0.367,0,9.187-2.389,9.739-2.297
	c0.551,0.092,16.905-1.011,16.905-1.011s4.043,6.339,6.891,6.523c2.848,0.183,23.98-4.227,23.98-4.227s-1.562,11.118,2.205,9.923
	c3.767-1.195,22.51-10.75,26-11.117c3.491-0.367,3.124,1.378,3.124,1.378l0.367,1.378l2.757,10.474c0,0,10.565-1.379,11.025-1.379
	s22.417,2.848,22.785,2.665c0.367-0.184,24.898-8.361,25.174-8.361s19.753,15.252,20.212,15.252c0.459,0,9.004,0.183,9.004,0.183
	l10.351,8.449c1.384,1.129,3.124,1.73,4.911,1.694l4.254-0.084c1.473-0.029,2.906-0.49,4.12-1.325l4.583-3.153
	c2.919-2.009,6.851-1.711,9.429,0.721c2,1.887,3.984,3.716,4.247,3.804c0.551,0.184,21.683,0.367,21.683,0.367
	s-2.94,6.432-1.562,7.259c1.378,0.827,4.501,0.183,4.501,0.183s26.276-13.781,26.461-13.414s-1.103,14.424,1.011,13.873
	c2.113-0.551,6.891-4.964,10.658-7.35c2.271-1.439,8.587-3.882,13.242-5.595c3.182-1.171,6.732-0.053,8.703,2.708
	c3.39,4.749,8.235,11.432,8.65,11.432c0.643,0,14.332,1.47,17.456,0.275c3.123-1.194,4.318-2.021,6.063-1.47
	c1.745,0.551,3.032,2.573,4.777,2.205c1.746-0.367,3.767-1.378,5.237-1.287c1.471,0.092,8.545,1.287,8.82,1.287
	c0.239,0,23.011-0.069,29.107-0.087c1.014-0.003,1.968-0.211,2.899-0.611l15.494-6.652c0,0,1.01,1.195,3.031,0.092
	c2.021-1.103,10.198-9.095,10.474-9.464c0.275-0.367,6.063,1.654,6.247,1.929c0.183,0.276,9.922,10.474,10.197,10.566
	c0.276,0.091,14.792,6.982,18.376,6.339c3.583-0.643,4.41-1.654,4.41-1.654s6.339-9.739,11.943-14.792
	c5.605-5.053,9.555-7.166,9.555-7.166l1.654,7.166c0,0,14.241-11.943,14.608-11.576c0.367,0.367,19.109,1.929,19.661,1.929
	c0.291,0,4.399-2.767,8.213-5.378c3.579-2.451,8.478-1.38,10.709,2.339l2.836,4.726c2.311,3.851,7.435,4.852,11.005,2.128
	c8.34-6.366,21.535-16.407,21.535-16.218c0,0.275,18.742,11.851,19.294,12.679c0.551,0.827,3.307-1.746,4.778-1.103
	c1.47,0.643,8.727,3.491,12.495,6.615c1.805,1.496,4.073,3.077,5.946,4.318c2.19,1.45,4.959,1.673,7.343,0.571l6.005-2.776
	l5.421,4.135c0,0,17.089,1.469,17.364,1.286c0.203-0.136,4.497-1.019,6.743-1.475c0.91-0.185,1.748-0.53,2.53-1.031l4.832-3.095
	c3.658-2.342,8.534-1.112,10.644,2.685l2.538,4.569c0,0,8.269-9.922,8.544-9.83c0.276,0.091,7.718,1.745,8.177,1.929
	c0.459,0.183,6.891,4.869,6.891,4.869l6.891-2.48c0,0,7.625,5.696,8.085,5.88c0.459,0.183,7.442,3.583,7.718,3.583
	c0.205,0,16.372-5.892,24.754-8.951c2.939-1.073,6.205-0.216,8.245,2.157c2.362,2.745,5.289,6.001,6.324,6.519
	c1.837,0.919,7.442,2.756,10.015,1.654c2.572-1.103,5.512-2.757,6.982-2.849C1482.767,745.756,1490.396,746.054,1490.396,746.054z"
	/>
</svg>
