<?xml version="1.0" encoding="utf-8"?>
<!-- Generator: Adobe Illustrator 24.2.0, SVG Export Plug-In . SVG Version: 6.00 Build 0)  -->
<!DOCTYPE svg PUBLIC "-//W3C//DTD SVG 1.0//EN" "http://www.w3.org/TR/2001/REC-SVG-20010904/DTD/svg10.dtd" [
	<!ENTITY ns_flows "http://ns.adobe.com/Flows/1.0/">
	<!ENTITY ns_extend "http://ns.adobe.com/Extensibility/1.0/">
	<!ENTITY ns_ai "http://ns.adobe.com/AdobeIllustrator/10.0/">
	<!ENTITY ns_graphs "http://ns.adobe.com/Graphs/1.0/">
	<!ENTITY ns_vars "http://ns.adobe.com/Variables/1.0/">
	<!ENTITY ns_imrep "http://ns.adobe.com/ImageReplacement/1.0/">
	<!ENTITY ns_sfw "http://ns.adobe.com/SaveForWeb/1.0/">
	<!ENTITY ns_custom "http://ns.adobe.com/GenericCustomNamespace/1.0/">
	<!ENTITY ns_adobe_xpath "http://ns.adobe.com/XPath/1.0/">
]>
<svg version="1.0" id="Layer_1" xmlns:x="&ns_extend;" xmlns:i="&ns_ai;" xmlns:graph="&ns_graphs;"
	 xmlns="http://www.w3.org/2000/svg" xmlns:xlink="http://www.w3.org/1999/xlink" xmlns:a="http://ns.adobe.com/AdobeSVGViewerExtensions/3.0/"
	 x="0px" y="0px" viewBox="0 0 1500 1500" enable-background="new 0 0 1500 1500" xml:space="preserve">
<metadata>
	<sfw  xmlns="&ns_sfw;">
		<slices></slices>
		<sliceSourceBounds  bottomLeftOrigin="true" height="206.23" width="1296.114" x="101.83" y="-853.393"></sliceSourceBounds>
	</sfw>
</metadata>
<g>
	<g>
		<path fill="#6FB2A5" d="M392.949,665.809c0.242-0.591,0.602-1.266,0.8-1.501c0.198-0.235,2.151,0,4.097,0.466c0,0,0,0,2.281-1.798
			c1.005-0.792,1.005-0.792,1.005-0.792c1,0.375,2.92,0.678,4.267,0.673s5.98-2.303,6.212-2.185c0,0,0,0,0.027,0.132
			c0.169,0.84,0.169,0.84,0.169,0.84c0.137,0.928,1.626,1.129,3.309,0.446c1.683-0.683,8.198,0.49,10.289,0.648
			c2.092,0.159,7.997-2.119,9.23-1.982c1.234,0.137,4.438,1.376,5.424,1.53s3.699-1.219,4.402-1.441s2.413-0.18,2.438-1.217
			c0.025-1.037,3.871,0.723,5.04,0.695c0,0,0,0,0.785-0.44c1.995-1.119,2.268-0.489,2.89,1.097c0.469,1.195,0.469,1.195,0.469,1.195
			c1.256-1.48,2.937-2.299,3.737-1.821s4.41,0.648,6.159,0.272c0,0,0,0,1.261-0.768c1.155-0.704,1.155-0.704,1.155-0.704
			c1.192,0.14,2.85,0.421,3.685,0.625c0,0,0,0,0.479,0.405c0.839,0.709,1.382,1.651,2.225,2.357
			c0.186,0.156,0.186,0.156,0.186,0.156c0.824-0.317,1.41-1.095,1.302-1.727c-0.108-0.633,2.372-1.706,4.219-2.075
			c0,0,0,0,1.522,1.108c0.374,0.272,0.374,0.272,0.374,0.272c1.718,0.844,3.981,0.914,5.029,0.157c0,0,0,0,1.05-0.5
			c0.614-0.292,0.614-0.292,0.614-0.292c0.888-0.026,1.565,0.502,1.504,1.175c0,0,0,0-0.062,0.611
			c-0.039,0.38-0.039,0.38-0.039,0.38c-0.053,0.417,0.547,0.73,1.334,0.696c0,0,0,0,0.307-0.304
			c0.632-0.627,0.886-1.499,1.474-2.165c0.738-0.835,0.738-0.835,0.738-0.835c1.082,0.355,2.51,0.536,3.174,0.401
			s4.045,0.154,6.47,2.036c0,0,0,0,3.231-1.897c0.474-0.278,1.948-0.188,2.137,0.095c1.352,2.022,1.352,2.022,1.352,2.022
			c1.822-0.851,3.752-1.997,4.29-2.547s2.603-1.605,3.047-0.769c0.444,0.836,2.639,2.574,3.701,1.645c0,0,0,0,1.085-0.244
			c1.883-0.424,1.883-0.424,1.883-0.424c2.234-0.102,4.33-0.215,4.659-0.25c0.329-0.035,2.299-0.545,3.745-0.841
			c1.445-0.297,6.773,1.615,7.311,0.969c0,0,0,0,0.674-0.391c0.613-0.356,0.613-0.356,0.613-0.356
			c0.886-0.15,1.264,0.201,0.841,0.779c0,0,0,0,0.1,0.456c0.095,0.432,0.797,0.814,1.306,1.142c1.203,0.775,1.203,0.775,1.203,0.775
			c0.184-0.93,0.586-2.133,0.894-2.674c0.308-0.541,2.946-1.469,5.326-1.166c0,0,0,0,2.004,0.374c0.427,0.08,0.427,0.08,0.427,0.08
			c0.416,0.524,0.599,0.938,0.405,0.918c-0.193-0.019-0.872,1.178-1.434,2.563c-0.561,1.385-5.711,0.892-6.104,1.092
			c0,0,0,0-0.12,0.272c-0.131,0.297-0.131,0.297-0.131,0.297c0.109,0.401,2.286,1.819,4.839,3.153c0,0,0,0,2.973-1.235
			c1.254-0.521,1.254-0.521,1.254-0.521c1.574-0.365,1.571-1.045-0.006-1.511c-1.577-0.466,0.322-4.582,1.839-5.202
			c0,0,0,0,1.845-0.037c3.376-0.068,6.836,0.75,10.203-0.635c0.912-0.375,2.89,0.155,3.793,0.807c0.91,0.657,0.91,0.657,0.91,0.657
			c0.417,1.383,1.166,1.857,1.666,1.052c0.499-0.805,2.994-2.746,4.473-2.59s6.155-0.311,7.275-1.777c0,0,0,0,1.244,0.944
			c0.322,0.244,0.322,0.244,0.322,0.244c0.318,0.285,1.208,1.325,1.978,2.311c0,0,0,0,1.635-0.886
			c0.457-0.248,0.457-0.248,0.457-0.248c1.006,0.116,1.948,0.694,2.093,1.286s1.009,2.182,1.349,1.219c0,0,0,0,0.101-0.485
			c0.072-0.348-0.13-0.769,0.04-1.062c0.624-1.08,1.463-0.897,2.534-0.307c2.587,1.424,0.602-1.358,1.85-1.383
			c0.775-0.015,0.775-0.015,0.775-0.015c0.882-0.317,2.823-0.206,4.314,0.246c0,0,0,0,1.32-1.053
			c0.371-0.296,1.518-0.497,1.698-0.323c2.9,2.796,2.9,2.796,2.9,2.796c1.827-2.21,4.375-3.18,5.661-2.155
			c1.286,1.025,6.941-0.103,7.924,0.51s5.42-1.075,7.617-0.906c0,0,0,0,1.855-0.943c0.274-0.139,0.274-0.139,0.274-0.139
			c0.603,0.245,2.684,0.807,4.624,1.249c0,0,0,0,3.122-0.499c2.218-0.355,2.218-0.355,2.218-0.355
			c0.337,1.312,1.437,1.838,2.443,1.169c1.007-0.67,4.873,0.226,5.422,0.223c0.549-0.004,2.587-0.866,4.159-1.431
			c0,0,0,0,1.749,0.377c1.992,0.429,1.992,0.429,1.992,0.429c2.287-0.211,4.422-0.127,4.745,0.188
			c0.322,0.315,1.329,0.356,1.972-0.167c0.643-0.523,3.575-2.087,4.081-1.496c0.507,0.591,2.256,1.995,3.2,2.244
			c0.944,0.249,4.97-0.219,6.868-0.926s7.001-0.005,8.03,0.003c1.029,0.008,4.154-0.843,4.998-0.482
			c0.844,0.361,3.494,1.286,3.988,1.238c0,0,0,0,0.265-0.203c1.517-1.161,1.517-1.161,1.517-1.161
			c2.029,0.169,4.159,0.298,4.734,0.286s3.092-0.526,4.548-0.661c1.456-0.136,4.733,0.223,4.932-1.621c0,0,0,0,2.865,1.637
			c0.499,0.285,0.499,0.285,0.499,0.285c0.581,0.221,2.157,0.365,3.501,0.319c1.345-0.046,5.877,0.397,7.243-0.291
			s5.989-1.486,6.912-1.479c0,0,0,0,0.534,0.34c1.173,0.746,1.983,1.755,3.849,1.612c1.597-0.123,1.597-0.123,1.597-0.123
			c0.785-0.925,1.923-1.83,2.527-2.009c0,0,0,0,0.604-0.057c1.842-0.174,1.842-0.174,1.842-0.174
			c1.938-0.474,4.755-1.212,6.259-1.639c0,0,0,0,1.079,1.63c1.079,1.63,3.015,1.762,4.891,0.557l8.933-1.022
			c2.606,0.22,2.606,0.22,2.606,0.22c2.868,0.229,6.031,0.315,7.029,0.193c0.998-0.123,3.354,1.37,3.5,0.631
			c0.145-0.739,1.208-1.361,2.117-0.138c0.909,1.223,7.036-0.158,9.199-0.087c2.163,0.071,8.163-1.168,8.702-1.358
			c0,0,0,0,0.189,0.127c3.536,2.382,3.536,2.382,3.536,2.382c4.505-0.417,8.555-0.627,9.001-0.467c0,0,0,0,0.089-0.083
			c1.263-1.18,2.332-1.882,4.551-0.916c1.049,0.456,1.049,0.456,1.049,0.456c1.863-0.618,4.914-1.344,6.78-1.612
			c0,0,0,0,1.654-0.039c2.312-0.054,2.312-0.054,2.312-0.054c2.479,0.183,4.901,0.653,5.382,1.044s1.979,1.15,2.181,0.753
			c0.202-0.397,1.713-1.479,2.978-1.657s5.455-0.32,6.333,0.157c0,0,0,0-0.021,0.488c-0.092,2.123-0.092,2.123-0.092,2.123
			c1.697-0.305,4.531-0.967,6.297-1.471c0,0,0,0,1.788,0.949c0.772,0.409,2.591,0.443,3.158-0.004
			c1.482-1.17,3.153-0.843,4.813-1.035c1.597-0.185,1.597-0.185,1.597-0.185c1.715-0.445,3.796-1.004,4.624-1.24
			c0.828-0.237,3.32,1.158,4.655,0.961c1.336-0.197,5.465-0.543,6.183-0.55s2.457-0.807,2.885-0.463
			c0.428,0.344,3.744,2.393,6.419,3.79c0,0,0,0,0.283-3.976c0.006-0.08,1.519-0.311,2.141-0.102
			c3.712,1.244,3.712,1.244,3.712,1.244c1.745-0.508,6.213-1.102,9.927-1.321c0,0,0,0,3.391,0.002c0.283,0,0.283,0,0.283,0
			c0.403,1.178,3.917,1.508,7.809,0.734c0,0,0,0,3.636,0.181c0.913,0.045,0.759,1.45-0.334,2.011c-0.49,0.251-0.49,0.251-0.49,0.251
			c-0.852,0.114-0.944,0.449-0.206,0.746c0.738,0.297,2.825,0.383,2.825-0.536s1.138-3.872,2.528-4.078
			c1.391-0.206,6.274,1.169,7.859,0.911c0,0,0,0,1.498,0.008c1.657,0.009,3.501,0.058,4.923,0.64
			c2.464,1.009,2.464,1.009,2.464,1.009c2.319-0.794,5.096-1.86,6.172-2.369c1.076-0.509,2.797,2.02,2.994,2.042
			c0.196,0.022,1.268-0.529,2.187-1.059c0,0,0,0,1.085,0.762c1.646,1.157,2.622,1.064,2.801-0.975
			c0.047-0.534,0.047-0.534,0.047-0.534c1.002-0.566,2.326-0.322,2.942,0.543c0.615,0.864,4.337,0.31,6.355,0.19
			c2.018-0.12,7.974-0.495,8.84-0.378c0,0,0,0,0.39-0.949c0.098-0.238,1.781-0.423,2.08-0.153c0.723,0.653,0.355,2.47,2.249,1.698
			c0.751-0.306,0.751-0.306,0.751-0.306c0.254-1.463,2.3-1.9,4.548-0.97c0,0,0,0,2.086,0.853c0.468,0.191,5.597-0.299,5.978-0.598
			c1.41-1.105,2.784-2.241,3.282,0.522c0.031,0.172,0.031,0.172,0.031,0.172c0.43,0.127,1.561,0.386,2.513,0.575
			s3.791,0.605,4.123,0.255c0.332-0.35,1.345-1.516,1.507-1.738c0.162-0.222,1.662-1.02,2.979-1.278s4.981,0.809,5.156,0.542
			c0.175-0.267,2.261-0.504,2.956,0.059c0.695,0.563,3.501,2.034,4.151,1.581c0.65-0.453,2.717-1.319,3.196-0.954
			c0.479,0.364,2.147,1.068,2.263,0.467s1.22-1.306,2.208-0.307c0,0,0,0,0.93,0.057c1.892,0.115,1.892,0.115,1.892,0.115
			c0.618,1.183,1.693,1.5,2.388,0.705c0.695-0.795,2.856-2.75,3.041-2.332c0.185,0.418,1.273,1.196,2.04,0.875
			c0.766-0.321,3.131-0.946,3.318-0.577c0,0,0,0,0.15,0.413c0.447,1.234,2.085,1.257,2.272,0.534
			c0.636-2.446,2.278-2.347,4.136-1.325c1.471,0.808,1.471,0.808,1.471,0.808c1.429-0.37,4.022-1.102,5.764-1.624
			c0,0,0,0,1.342,1.283c1.479,1.413,3.061,1.789,5.01,0.59c0.167-0.102,0.866,0.154,1.112,0.387
			c1.592,1.509,1.592,1.509,1.592,1.509c0.591-0.597,1.522-1.622,2.069-2.277c0,0,0,0,0.494,0.004c2.12,0.015,2.12,0.015,2.12,0.015
			c2.301,0.284,4.487,0.49,4.857,0.457c0.371-0.033,2.016-0.527,2.956-0.702c0.94-0.175,4.514,1.766,5.699,1.152
			s4.651-1.325,5.135-0.25c0.484,1.075,5.102-0.856,7.102-1.017c2-0.161,7.309,1.126,7.435,0.503
			c0.126-0.623,0.878-2.22,1.289-1.666c0,0,0,0,0.185,0.319c0.173,0.298,0.173,0.298,0.173,0.298
			c0.139,0.348,1.595,0.734,3.236,0.859c1.641,0.125,5.158,1.546,4.325,2.16s-11.908,0.831-14.202,1.236
			c-2.294,0.405-2.116,1.656-0.686,1.23c0,0,0,0,1.455,0.499c0.151,0.052,0.151,0.052,0.151,0.052
			c0.412-0.419,1.826-1.256,3.142-1.862c1.316-0.605,3.155,2.822,3.708,2.971c0.552,0.15,1.267-1.168,1.206-1.765
			c0,0,0,0,0.165-0.494c0.648-1.944,0.505-1.551-0.984-2.009c-1.828-0.561-1.828-0.561-1.828-0.561
			c-1.691,0.428-3.328,0.943-3.638,1.146c0,0,0,0-0.323,0.167c-1.721,0.887-1.721,0.887-1.721,0.887
			c1.94-0.549,5.055-0.15,6.923,0.885c1.868,1.035,6.004,1.255,7.123,0.986c1.118-0.269,5.144,0.456,6.166,0.124
			s0.946-2.459,0.619-2.924c-0.327-0.465-1.892-1.685-2.727-1.685c-0.834,0-2.064-0.41-0.879-0.911
			c1.185-0.501,4.385-2.251,4.593-2.606c0.207-0.355,2.6-0.192,2.951,0.045c0.35,0.238,1.907,1.844,2.632,2.648
			c0.724,0.804,4.79,2.521,5.125,2.883c0.335,0.362,0.842-1.238,0.682-1.849c0,0,0,0-0.413-0.167
			c-1.448-0.587-1.448-0.587-1.448-0.587c-1.59-0.459-2.524-1.453-2.074-2.21c0,0,0,0-0.234-0.281
			c-0.58-0.695-0.866-1.528,0.368-1.163c2.016,0.596,2.016,0.596,2.016,0.596c2.221,0.273,5.172,0.796,6.557,1.163
			s7.107-0.995,7.918-1.275c0.811-0.28,2.607-0.586,3.735-0.971c0,0,0,0,1.063,0.381c0.184,0.066,0.544-0.067,0.637,0.022
			c0.729,0.694,0.729,0.694,0.729,0.694c0.759,0.793,1.854,1.007,2.434,0.475c0.579-0.531,2.724-0.474,3.746-0.011
			c1.023,0.464,4.859-0.479,6.392,0.279c0,0,0,0,1.278,0.81c0.159,0.101-0.509,0.944-0.603,1.466c-0.085,0.47-0.085,0.47-0.085,0.47
			c0.132,0.551,0.65,0.203,1.149-0.773c0.5-0.976,3.75-1.817,3.606-2.095c-0.144-0.277,0.305-1.155,1.393-1.195
			c1.088-0.04,5.546,1.342,7.377,1.949s7.148-0.76,7.527-0.674c0.379,0.086,1.247,0.591,1.059,0.9
			c-0.188,0.308-1.42,1.192-2.064,1.562c-0.644,0.37,0.996,3.757,3.782,4.154c0,0,0,0,1.104-2.134
			c0.877-1.695,0.877-1.695,0.877-1.695c-1.619-2.204-1.429-4.233,0.421-4.51c0,0,0,0,0.547,0.392
			c1.103,0.79,1.411,2.296,3.329,2.407c0.033,0.002,0.047,0.237,0.066,0.364c0.359,2.44,0.373,2.365,3.273,2.733
			c1.477,0.188,1.477,0.188,1.477,0.188c1.925,0.572,3.5,0.136,3.5-0.97s0.681-3.751,1.514-3.866c0,0,0,0,0.212,0.167
			c1.099,0.864,1.099,0.864,1.099,0.864c1.119,1.034,1.11,2.046-0.021,2.248c-1.131,0.202-0.839,2.908,0.038,3.024
			c0.876,0.116,3.311-1.633,3.704-1.26c0.393,0.373,1.774,1.281,2.216,1.208c0,0,0,0,0.246-0.141
			c0.354-0.203,0.354-0.203,0.354-0.203c0.327-0.296,1.085-0.858,1.685-1.247c0.6-0.39,3.13,1.59,3.626,0.959
			c0.496-0.631,2.345-1.731,3.243-1.342c0.898,0.389,3.854,0.985,4.464,0.719c0.611-0.266,2.169-1.425,2.354-0.746
			s1.272,2.328,2.032,2.264c0,0,0,0,0.497-0.227c3.222-1.471,3.222-1.471,3.222-1.471c2.953,1.391,5.752,2.739,6.22,2.995
			c0.468,0.256,1.841,0.784,1.99,0.618s0.476-1.246,0.703-2.018c0.227-0.772,3.041-0.243,3.793,0.032
			c0.752,0.276,2.774,0.122,2.845,0.627c0.072,0.505,2.768-0.263,3.63-0.896c0.862-0.633,4.612-1.09,5.13-1.529c0,0,0,0,0.528-0.387
			c0.31-0.227,0.982-0.568,1.047-0.513c3.125,2.661,3.125,2.661,3.125,2.661c0.332-2.264,1.872-3.801,3.423-3.416
			c1.551,0.385,3.772,3.776,3.938,3.296c0.167-0.48,0.705-1.617,0.95-1.818c0,0,0,0,0.004,0.003
			c1.108,0.856,2.333,1.649,3.201,2.648c0.264,0.303-0.564,1.159-0.701,1.789c-0.128,0.59-0.128,0.59-0.128,0.59
			c0.075,0.681,0.777,1.296,1.559,1.368c0,0,0,0,0.326-0.257c1.979-1.564,2.862-1.047,3.317,0.935
			c0.027,0.119,0.027,0.119,0.027,0.119c1.165-0.06,2.151-0.551,2.191-1.092s0.062-1.713-0.64-1.854s0.398-1.912,1.366-2.131
			c0.968-0.219,2.869,2.284,3.179,3.73c0,0,0,0-0.151,1.305c-0.059,0.51-1.214,1.357-1.827,1.333c-2.66-0.105-2.66-0.105-2.66-0.105
			c-2.906-0.404-5.203-0.075-5.105,0.733c0.098,0.807,4.449,1.227,5.056,2.077c0.607,0.851,0.774,2.452,0.939,3.03
			c0.164,0.578-0.741,2.627-1.538,3.549c0,0,0,0-0.852,0.761c-1.036,0.925-2.16,1.784-3.26,2.66
			c-0.103,0.082-0.103,0.082-0.103,0.082c-0.196,0.021-0.312-0.846-0.258-1.928s-1.947-3.913-2.82-3.359
			c-0.873,0.554-3.103,2.401-2.561,2.994c0,0,0,0,0.416,0.307c0.532,0.392,0.532,0.392,0.532,0.392
			c0.658,0.365,0.884,0.881,0.503,1.146s-1.016,1.324-0.562,1.763c0.454,0.439,9.26,1.57,8.637,1.79
			c-0.624,0.22-1.154,0.745,0.16,0.693c1.314-0.052,2.403,2.537,2.816,2.485s1.386-0.416,1.244-0.694
			c-0.142-0.278,0.16-0.85,0.985-0.652c0,0,0,0,0.751,0.18l0,0c2.471,1.248,3.626,2.34,2.567,2.428
			c-1.059,0.087-4.083,0.913-4.079,1.617c0.005,0.704,1.181,2.195,1.934,3.085c0.753,0.89,4.741,1.329,5.02,1.071
			c0.278-0.258,2.127-0.834,3.206-0.443c1.078,0.391,3.525,0.625,2.8-0.435c-0.725-1.06,2.767-4.869,4.173-6.66c0,0,0,0,1.574-0.046
			c2.289-0.067,2.289-0.067,2.289-0.067c0.662-1.29,1.291-1.857,1.396-1.258s0.901,2.34,1.393,1.731
			c0.491-0.61,2.576-1.448,3.671-0.667c1.094,0.78,4.988,2.57,6.206,2.233s4.609-2.478,7.144-1.795c0,0,0,0,2.296,0.562
			c0.061,0.015,0.268-0.611,0.532-0.843c0.483-0.424,1.106-1.136,1.589-1.096c1.67,0.141,1.67,0.141,1.67,0.141
			c-0.398,1.059-1.125,2.429-1.615,3.045c-0.491,0.616-0.056,3.479,2.592,4.443c0,0,0,0,1.389-3.031
			c0.321-0.7,2.001-1.115,3.153-1.372c0.451-0.1,1.475,0.5,1.696,0.956c0.334,0.687,0.284,1.425,1.405,0.565
			c0.955-0.733,1.96-0.863,2.58,0.15c0.463,0.757,0.949,1.829,0.625,2.509c-0.585,1.227-1.796,2.25-2.692,3.385
			c-0.907,1.148-0.907,1.148-0.907,1.148c0.69,1.176,2.698,2.619,4.463,3.207c1.765,0.588,5.437,0.887,6.741,0.877
			c1.304-0.01,6.589,2.988,7.367,4.022c0.778,1.034,4.902,1.646,5.161,1.922s0.22,2.388,0.053,4.568c0,0,0,0,1.527,1.774
			c0.568,0.66,0.568,0.66,0.568,0.66c0.351,0.904-0.434,2.09-1.745,2.636c0,0,0,0-0.913,0.834c-1.463,1.336-1.326,1.44-2.46,0.716
			c-0.172-0.11-0.297-0.269-0.471-0.374c-1.842-1.112-1.842-1.112-1.842-1.112c-0.786,1.432-1.813,1.788-2.283,0.79
			c-0.47-0.998-4.798-1.212-6.012-1.012c-1.214,0.2-4.566,1.363-2.978,1.842c1.588,0.48,4.579,2.27,3.99,3.176c0,0,0,0,1.239,0.605
			c2.057,1.005,2.057,1.005,2.057,1.005c1.406-1.581,2.613-2.615,2.682-2.298c0.07,0.317,1.171,1.124,2.089,1.288
			c0.919,0.164-0.187,2.754-1.683,3.06c0,0,0,0-0.781,0.793c-0.866,0.88-0.866,0.88-0.866,0.88
			c-0.745,1.535-0.872,2.992-0.284,3.236c0.588,0.244,0.802,1.969-0.711,3.34c-1.513,1.371-4.978,4.972-4.508,5.112
			c0.47,0.14,1.44,1.179,0.796,1.907c0,0,0,0-0.561,0.018c-1.165,0.036-1.165,0.036-1.165,0.036
			c-1.151,0.301-2.413,1.574-2.805,2.828c0,0,0,0,1.283,1.033c0.401,0.323-1.584,6.182-2.145,6.523
			c-1.327,0.808-1.327,0.808-1.327,0.808c-1.443,0.854-2.636,2.076-2.651,2.715c-0.015,0.64-1.799,2.805-2.197,3.66
			c0,0,0,0-0.601,0.639c-1.345,1.431-1.345,1.431-1.345,1.431c0.919,1.472,1.665,3.922,1.658,5.446c0,0,0,0-0.337,1.367
			c-0.482,1.956-0.482,1.956-0.482,1.956c1.755,0.217,2.476,0.932,1.602,1.588s-4.607,2.525-6.088,2.499c0,0,0,0-1.532,0.06
			c-2.281,0.089-2.281,0.089-2.281,0.089c-1.697,1.32-3.584,2.537-4.192,2.705c0,0,0,0-0.059-0.087
			c-1.34-1.969-2.691,0.861-4.212-0.056c-1.268-0.765-2.927-1.143-4.552-1.51c-0.162-0.036-0.162-0.036-0.162-0.036
			c-0.63,1.239-2.172,1.706-3.427,1.038c-1.255-0.668-4.818,1.095-5.111,1.143c0,0,0,0-0.093-0.088
			c-1.029-0.98-2.621-0.015-3.312-0.383c-1.98-1.056-1.98-1.056-1.98-1.056c-1.687,0.771-4.509,0.701-6.271-0.156
			c0,0,0,0-1.807,1.371c-0.323,0.245-0.323,0.245-0.323,0.245c-0.77-0.121-3.695-0.9-6.5-1.731c0,0,0,0-2.567,1.613
			c-0.42,0.264-0.42,0.264-0.42,0.264c-0.786-0.105-2.231-0.04-3.211,0.145c-0.98,0.185-4.271-0.854-5.067-1.088
			c-0.796-0.234-3.427,0.163-4.237,0.607s-5.241-0.114-7.068,0.053c0,0,0,0-1.717,0.102c-0.814,0.048-1.926,0.055-2.425-0.329
			c-1.221-0.94-1.221-0.94-1.221-0.94c-1.144,0.494-3.63,1.33-5.524,1.859c0,0,0,0-1.707,0.539
			c-0.463,0.146-0.755,0.651-1.123,0.993c-0.941,0.875-0.941,0.875-0.941,0.875c-0.471-0.945-1.335-1.534-1.921-1.308
			c-0.586,0.226-2.391,2.455-2.357,4.316c0,0,0,0-0.122,1.754c-0.021,0.304-0.021,0.304-0.021,0.304
			c-3.22-0.015-6.587,0.251-7.482,0.593c0,0,0,0,0.457-0.346c3.166-2.395,3.166-2.395,3.166-2.395
			c-0.046,2.097,0.639,3.647,1.523,3.443c0.883-0.204,0.956-2.489,0.922-3.36c-0.034-0.871-1.464-3.235-1.87-3.532
			c-0.406-0.296-2.668,1.167-3.567,1.93c-0.899,0.763,4.311,4.502,8.364,5.557c0,0,0,0,1.139-0.917
			c1.291-1.039,1.291-1.039,1.291-1.039c1.148-1.746,3.402-2.763,5.01-2.26s5.559,2.245,5.449,1.012c0,0,0,0,0.301-0.758
			c0.115-0.289,0.115-0.289,0.115-0.289c1.099-0.063,1.888,0.115,1.753,0.397c-0.134,0.281-0.035,1.277,0.628,1.36
			c0.663,0.083,2.34,0.67,2.158,1.109c0,0,0,0-0.1-0.008c-1.844-0.14-1.844-0.14-1.844-0.14c-1.579,1.106-1.828,2.274-0.554,2.596
			c0,0,0,0,0.437-0.312c1.826-1.303,1.826-1.303,1.826-1.303c2.185,0.04,4.867,0.339,5.96,0.664
			c1.093,0.325,3.699-1.431,4.194-1.559c0,0,0,0,0.301,0.138c1.144,0.524,1.144,0.524,1.144,0.524
			c1.138,0.598,3.045,0.788,4.24,0.422c0,0,0,0,1.161,0.862c0.361,0.268,1.432-0.11,2.181-0.169
			c0.457-0.036,0.457-0.036,0.457-0.036c0.508-0.003,0.923,0.474,0.923,1.06c0,0,0,0,0,0.533c0,0.716,0,0.716,0,0.716
			c0,0.787-0.777,2.437-1.727,3.665c0,0,0,0-1.997-0.069c-2.134-0.074-2.134-0.074-2.134-0.074c-2.96,0.031-2.602,1.621,0.797,3.533
			c0,0,0,0,3.586-0.232c1.493-0.096,1.493-0.096,1.493-0.096c0.78-0.896,2.222-1.799,3.206-2.006c0,0,0,0,0.38,0.278
			c1.139,0.832,1.139,0.832,1.139,0.832c0.103,1.715,0.748,3.652,1.433,4.304c0,0,0,0,0.978-0.172
			c0.35-0.062,0.767-0.843,0.689-1.235c-0.065-0.33-0.065-0.33-0.065-0.33c-0.648-0.287-2.034-0.251-3.08,0.08c0,0,0,0-1.324-0.349
			c-0.85-0.224-1.832,0.81-3.662,0.338c-2.466-0.636-2.466-0.636-2.466-0.636c-3.229,0.66-6.804,2.235-7.945,3.499
			c0,0,0,0,1.478,1.355c0.372,0.341,0.372,0.341,0.372,0.341c0.772,0.229,3.248-0.989,5.501-2.706c0,0,0,0,3.073,1.09l5.099,2.741
			c2.233-2.233,2.233-2.233,2.233-2.233c-1.171-1.633-1.56-3.696-0.865-4.585c0.695-0.889,3.272-2.578,4.707-1.185
			c0,0,0,0,0.68,1.032c0.273,0.415-0.055,1.259-0.429,1.746c-0.498,0.649-0.498,0.649-0.498,0.649
			c-0.575,2.478,0.266,4.286,1.87,4.018c1.604-0.268,4.129,3.234,3.425,3.721c-0.704,0.487-2.825,2.461-1.513,2.176
			c1.312-0.285,14.343-1.824,16.342-2.592c1.999-0.769-0.693-1.268-3.372-0.907c0,0,0,0-2.248,0.921
			c-0.673,0.276-0.673,0.276-0.673,0.276c-0.858,0.113-1.444-0.022-1.3-0.299c0.143-0.277-0.162-1.271-0.997-1.593
			c0,0,0,0-0.144,0.137c-0.911,0.866-1.613,1.874-2.449,2.797c-0.634,0.699-0.634,0.699-0.634,0.699
			c0.697,0.931,2.365,2.024,3.706,2.428c1.342,0.404,3.994-2.366,4.36-2.682c0.366-0.316,1.595,0.157,1.828,1.785
			c0,0,0,0,2.488-1.007c1.404-0.568,1.404-0.568,1.404-0.568c-3.081-0.323-7.634-1.131-10.118-1.795
			c-2.484-0.664-2.281-2.869-1.639-3.508c0.642-0.639,2.405-2.288,2.539-2.228c0,0,0,0,0.057,0.151
			c0.351,0.932,0.338,2.436,1.047,2.707c1.98,0.755,1.98,0.755,1.98,0.755c0.098-1.402,0.533-2.895,0.967-3.318
			c0.434-0.424,6.222,0.53,10.264,1.327c0,0,0,0,3.724-1.742c1.282-0.6,1.282-0.6,1.282-0.6c-0.229,1.056,0.014,2.223,0.538,2.594
			s2.527,1.103,2.661,0.366c0.134-0.737,1.734-1.974,3.338-1.547c1.604,0.428,0.281,4.299,1.044,5.007
			c0.763,0.707,5.416,1.027,9.125-0.413c0,0,0,0,3.338-1.028c0.422-0.13,0.422-0.13,0.422-0.13c1.087,1.109,2.24,1.818,2.563,1.577
			c0.323-0.241,1.219-1.028,1.305-1.235c0,0,0,0-0.049-0.028c-1.358-0.773-1.358-0.773-1.358-0.773
			c-1.527-0.804-3.436-1.412-4.243-1.351c0,0,0,0-0.752,0.057c-0.463,0.035-1.044,0.178-1.379,0.013
			c-2.981-1.464-2.588,0.324-2.664,1.754c-0.016,0.301-0.016,0.301-0.016,0.301c-0.284,0.322-0.566-0.029-0.628-0.779
			s-2.924-1.155-3.307-1.639c0,0,0,0,0.094-0.399c0.076-0.326,0.997-0.852,1.279-0.759c1.663,0.55,3.139-1.706,4.999-0.161
			c0.234,0.194,0.234,0.194,0.234,0.194c1.9-1.082,3.699-1.371,3.997-0.642c0,0,0,0,0.667,0.449
			c0.307,0.206,0.307,0.206,0.307,0.206c1.02-0.461,2.528-1.205,3.353-1.653s3.738-1.286,4.094-0.546
			c0.356,0.74,1.585,2.764,1.836,2.637c0,0,0,0,0.423-0.108c2.528-0.644,2.528-0.644,2.528-0.644c2.755-0.738,6.239-0.95,7.744-0.47
			c0,0,0,0-0.01,0.125c-0.145,1.839,1.174,3.915-1.12,5.495c-0.191,0.131,0.123,1.099,0.515,1.334
			c0.358,0.215,1.443,0.145,1.677-0.115c0.711-0.791,1.126-1.755,1.736-2.613c0.356-0.501,0.356-0.501,0.356-0.501
			c0.522-0.49,1.125-0.386,1.34,0.231c0.215,0.616,1.44,2.359,2.039,2.574c0.599,0.215,2.565-0.133,3.067,0.247
			c0.502,0.38,2.073,1.162,2.24,0.791c0.167-0.371,1.05-0.987,1.527-0.4s3.208,1.386,4.558-0.077c0,0,0,0,1.479-0.919
			c0.093-0.058,0.093-0.058,0.093-0.058c0.948,0.835,1.34,1.851,0.872,2.258c-0.468,0.407-1.351,1.779-0.613,1.873
			c0.738,0.094,2.81,0.885,2.518,1.491c-0.292,0.606-0.395,2.629,0.606,2.755c1.001,0.126,1.943,1.441-0.55,2.591
			c0,0,0,0-2.003,1.054c-0.691,0.363-1.385,0.961-1.636,1.572c-0.25,0.611-0.242,1.567,0.2,2.009
			c0.402,0.402,1.656,0.584,2.33,0.391c1.398-0.401,1.398-0.401,1.398-0.401c0.006-1.204,0.365-2.595,0.797-3.091
			c0,0,0,0,0.535-0.21c1.598-0.627,6.302,1.128,6.472,2.464c0.05,0.389,0.05,0.389,0.05,0.389c-0.757,0.503-2.227,1.422-3.266,2.044
			c-1.04,0.621-3.324,2.899-3.39,3.161c-0.065,0.262-0.886,0.247-1.66-0.808c0,0,0,0-0.82-0.148
			c-0.722-0.131-0.722-0.131-0.722-0.131c-1.236,0.848-1.7,1.86-1.033,2.249c0.668,0.389,2.958,3.825,2.906,6.365c0,0,0,0,0.12,2.63
			c0.133,2.905,0.133,2.905,0.133,2.905c-2.767,1.689-5.132,2.628-5.255,2.088s-0.999-1.604-1.67-1.155
			c-0.671,0.449-0.312,2.964-1.003,3.06c-0.692,0.095-2.359,1.211-1.46,2.171c0,0,0,0,0.675,0.001
			c1.137,0.001,2.244-0.773,3.421-0.925c0.888-0.114,2.434-0.517,2.44,0.91c0.003,0.753-0.314,1.983-0.896,2.174
			c-2.041,0.672-2.041,0.672-2.041,0.672c-2.112,0.36-3.693-1.085-3.513-3.211c0,0,0,0-3.183,0.559
			c-2.518,0.442-2.518,0.442-2.518,0.442c1.035,1.924,0.931,3.552-0.231,3.617c-1.162,0.065-4.492-0.228-4.604-0.808
			c-0.111-0.58-1.056-1.583-1.821-0.774s-3.201,2.736-3.34,2.085c-0.139-0.651-1.072-2.327-1.643-1.714
			c-0.571,0.613-4.256,2.132-6.794,1.879c0,0,0,0-1.763,0.879c-1.88,0.938-1.88,0.938-1.88,0.938
			c-1.815-0.12-4.926-0.109-6.914,0.025c0,0,0,0-1.826-0.087c-0.609-0.029-0.609-0.029-0.609-0.029
			c-0.686,0.227-2.927,0.116-4.98-0.245c-2.053-0.362-7.825,0.877-8.306,0.659c-0.481-0.218-2.761-0.509-3.944-0.612
			s-4.219,0.14-5.127-0.406c-0.908-0.546-4.668,1.839-6.438,2.507c0,0,0,0-0.313-2.523c-0.103-0.826-0.103-0.826-0.103-0.826
			c-1.246,0.503-2.937,1.173-3.756,1.489c-0.82,0.316-2.325,1.429-2.826,0.745c-0.5-0.685-4.375,0.176-5.476,0.311
			c-1.1,0.135-4.331-0.417-4.99-0.649s-2.575,1.076-2.983,1.39c-0.407,0.315-2.422-0.262-2.95-0.456
			c-0.529-0.194-3.359,0.247-5.09,0.994c-1.73,0.748-7.947-1.295-9.812-1.429s-6.674,2.203-7.49,2.327
			c-0.815,0.124-3.895-0.241-5.117,0.853c0,0,0,0-2.231-1.422c-0.948-0.604-3.292,0.387-5,0.379c-1.425-0.006-2.842-0.56-4.272-0.59
			c-1.063-0.022-2.156,0.369-3.209,0.643c-2.424,0.631-2.424,0.631-2.424,0.631c-0.147-1.469-0.141-1.892,0.014-0.941
			c0.155,0.951-3.9-0.141-5.329,0.344c0,0,0,0-1.284-0.104c-5.312-0.431-5.312-0.431-5.312-0.431
			c-5.855-0.315-12.335-0.463-14.4-0.329c-2.065,0.134-7.688,1.416-8.105,1.602c-0.417,0.186-2.447,0.464-4.415,0.72
			c0,0,0,0-0.534-0.518c-1.697-1.647-3.596,0.055-4.697-0.422c-1.971-0.855-1.971-0.855-1.971-0.855
			c-2.035,0.199-4.595,0.175-5.688-0.053c-1.093-0.228-5.576,1.42-8.071,1.729c0,0,0,0-2.403-1.183
			c-1.355-0.667-1.355-0.667-1.355-0.667c-2.302,0.508-4.844,0.692-5.648,0.408c-0.804-0.284-2.746,0.58-3.203,0.061
			c-0.456-0.519-2.524-1.525-3.534-1.025c-1.01,0.499-4.695,1.779-5.699,1.861c-1.004,0.082-3.734-0.409-4.536-0.769
			c-0.803-0.359-5.336,0.977-8.051,1.543c-2.715,0.566-10.331-0.879-10.926-0.398c-0.595,0.481-3.073-0.741-3.688-0.862
			s-2.255,0.316-2.513-0.049s-1.19-1.076-1.426-0.667s-1.933,1.072-3.163,0.412c-1.23-0.66-5.479,1.068-6.5,1.18c0,0,0,0-0.6-0.343
			c-2.208-1.264-4.12-1.218-6.369,0.04c-1.909,1.068-3.938-1.543-5.177-0.79c-1.876,1.14-3.932,1.339-5.411,0.764
			c-1.285-0.5-1.815-0.361-2.924-0.057c-0.726,0.199-2.502-0.694-2.576-0.578c-0.987,1.547-2.127-0.612-2.878,0.104
			c-0.801,0.764-1.134,0.421-1.933-0.04c-1.608-0.926-1.608-0.926-1.608-0.926c-2.059,0.289-6.445,0.859-9.746,1.268
			c-3.301,0.409-14.698,0.042-16.106,0.345c0,0,0,0-1.294,0.03c-3.735,0.086-3.735,0.086-3.735,0.086
			c-4.095-0.111-8.22,0.257-9.167,0.818s-5.847-0.44-7.87-0.763c0,0,0,0-1.885-0.087c-2.192-0.101-4.397-0.051-6.596-0.014
			c-1.418,0.024-1.418,0.024-1.418,0.024c-0.524-0.902-1.15-1.628-1.392-1.613c-0.242,0.015-1.429,0.365-2.101,0.743
			c-0.672,0.378-2.753,1.46-3.462,1.041s-5.399,0.691-8.702,0.592c-3.302-0.099-12.947-0.943-14.139-1.121
			c-1.192-0.178-4.901,0.842-5.765,0.246s-5.076,0.804-6.218,0.894c-1.142,0.09-5.431,0.395-6.901,0.563s-5.794-1.134-6.859-0.835
			c-1.065,0.299-4.98,0.346-6.044,0.026c-1.063-0.32-6.107,0.287-8.293,0.197c0,0,0,0-2.085-0.521
			c-1.67-0.417-1.67-0.417-1.67-0.417c-2.722,0.707-7.818,1.281-11.326,1.276c-3.507-0.005-14.907,0.304-17.537,0.728
			c0,0,0,0-0.782-2.791c-0.061-0.218-0.061-0.218-0.061-0.218c-1.795,0.037-3.076,0.369-2.848,0.739
			c0.228,0.369,0.018,1.49-1.102,1.464c-1.12-0.026-5.328,0.489-7.007,0.994c0,0,0,0-1.864-0.845
			c-1.051-0.476-1.051-0.476-1.051-0.476c-0.683-0.684-1.709-1.271-2.281-1.305c0,0,0,0-0.238,0.196
			c-0.502,0.413-0.917,1.453-1.188,1.413c-5.245-0.764-5.245-0.764-5.245-0.764c-5.748,0.961-10.527,1.193-10.621,0.515
			s-1.371-2.255-2.599-1.784c0,0,0,0-1.009-0.11c-2.217-0.241-1.339,1.577-2.248,1.936c-0.895,0.354-2.113,0.117-3.147,0.298
			c-1.189,0.209-2.31,0.708-3.503,0.856c-0.706,0.088-0.706,0.088-0.706,0.088c-0.847-0.269-2.47-0.691-3.606-0.937
			c-1.136-0.247-4.118,0.347-4.816,0.626c-0.698,0.279-3.965-0.317-5.016-0.054c-1.05,0.263-6.294,0.492-9.281,1.21
			c0,0,0,0-2.643-1.745c-0.648-0.428-2.458-0.39-3.146,0.046c-2.208,1.401-2.208,1.401-2.208,1.401
			c-2.302-0.689-5.431-1.413-6.952-1.61c0,0,0,0-0.183,0.316c-1.363,2.361-3.185-0.705-4.756,0.414
			c-1.508,1.073-1.508,1.073-1.508,1.073c-1.668-0.844-4.869-1.865-7.112-2.27c0,0,0,0-2.131,1.277
			c-1.499,0.898-1.499,0.898-1.499,0.898c-1.148-1.432-3.424-2.32-5.057-1.974c0,0,0,0-0.484,0.654
			c-1.124,1.519-2.006-0.691-2.901,0.078c-0.278,0.239-0.278,0.239-0.278,0.239c-0.351,0.206-2.233,0.066-4.183-0.31
			c-1.95-0.376-12.631,0.799-13.211,0.913c0,0,0,0-0.199-0.163c-1.357-1.117-3.069-1.711-4.506-0.614
			c-1.774,1.353-2.146-1.151-3.849-0.562c-1.299,0.45-1.299,0.45-1.299,0.45c-1.904-0.663-6.033-0.881-9.177-0.484
			c0,0,0,0-2.88,0.132c-1.705,0.078-4.494,0.343-4.944-0.315c-1.232-1.803-1.232-1.803-1.232-1.803
			c-1.281,0.776-2.717,1.371-3.192,1.322c-0.475-0.049-2.408,0.078-3.831-0.118c0,0,0,0-1.223-0.045
			c-1.115-0.042-2.254,0.679-3.426,0.929c-0.149,0.032-0.149,0.032-0.149,0.032c-0.39-0.652-1.158-1.493-1.708-1.87
			c-0.549-0.377-1.882,1.206-2.34,2c0,0,0,0-1.288-0.095c-1.611-0.119-1.611-0.119-1.611-0.119
			c-1.778,0.061-4.866,0.248-6.862,0.416c0,0,0,0-1.885-0.25c-1.887-0.25-1.887-0.25-1.887-0.25
			c-2.158,0.107-4.025-0.304-4.15-0.915s-0.513-2.097-0.62-2.1s-0.508,0.479-0.653,1.078s-1.323,2.216-2.244,2.053
			c0,0,0,0-0.32-0.334c-1.763-1.839-1.723-1.864-4.177-0.242c-0.27,0.179-0.27,0.179-0.27,0.179
			c-0.293,0.171-2.571,0.477-5.063,0.68c-2.491,0.203-9.01-1.891-9.771-1.467s-2.235-0.448-1.529-1.023
			c0.707-0.574,2.016-2.242,0.705-1.914s-4.278,2.351-4.784,3.052c0,0,0,0-0.447-0.004c-0.971-0.008-1.931-0.633-2.904-0.646
			c-0.862-0.012-1.714,0.601-2.607,0.688c-1.052,0.103-2.312,0.204-3.187-0.162c-3.067-1.283-3.067-1.283-3.067-1.283
			c-3.264,0.725-6.883,1.372-8.041,1.437c0,0,0,0-0.942-0.272c-1.531-0.442-5.011-1.18-6.413-0.715
			c-2.896,0.961-2.896,0.961-2.896,0.961c-2.624-1.09-5.107-1.467-5.518-0.84s-6.741-0.028-10.538-0.153c0,0,0,0-3.519-0.015
			c-2.623-0.011-2.623-0.011-2.623-0.011c-2.849-0.121-7.229,0.243-9.733,0.809c0,0,0,0-2.414-0.73
			c-1.323-0.4-4.758-1.281-5.802-1.816c-0.525-0.269-2.096-0.089-2.119,0.03c-0.423,2.119-1.434,2.443-3.286,0.87
			c-0.132-0.112-0.132-0.112-0.132-0.112c-0.225-0.054-2.481,0.414-5.013,1.04c0,0,0,0-1.94-0.451
			c-2.378-0.553-4.219-1.172-6.415,0.278c-0.559,0.369-2.016-0.088-3.029-0.275c-0.784-0.145-0.784-0.145-0.784-0.145
			c-0.823-0.291-2.251-0.104-3.173,0.415c-0.922,0.519-5.135-0.373-6.268-0.503s-6.128-0.136-8.544,0.281c0,0,0,0-1.771-1.647
			c-0.042-0.039-0.567,0.365-0.902,0.42c-5.455,0.892-5.455,0.892-5.455,0.892c-2.942-0.651-5.74-1.209-6.218-1.241
			s-4.31,0.282-7.946,0.291c0,0,0,0-3.271,0.437c-0.328,0.044-0.328,0.044-0.328,0.044c-0.605-1.147-1.296-1.481-1.536-0.743
			c-0.24,0.738-5.698,1.224-9.029,1.687c0,0,0,0-2.665-1.917c-0.225-0.162-0.225-0.162-0.225-0.162
			c-0.789,0.345-2.98,0.658-4.868,0.694c0,0,0,0-1.705-0.531c-1.407-0.438-2.559,2.245-4.426,0.391
			c-0.307-0.305-1.442-0.096-2.189-0.057c-0.472,0.024-0.953,0.289-1.396,0.241c-0.766-0.084-0.766-0.084-0.766-0.084
			c-0.779-0.203-2.817,0.018-4.529,0.492c0,0,0,0-1.043-1.29c-1.435-1.774-2.51,1.116-4.252-0.01
			c-1.761-1.139-0.796-2.745-1.861-3.696c-0.497-0.444-2.186-0.478-2.97-0.139c-1.577,0.682-1.577,0.682-1.577,0.682
			c-1.547,1.104-2.481,2.105-2.075,2.225c0.406,0.12,0.131,0.756-1.667,1.101c0,0,0,0-1.638-0.288
			c-0.997-0.175-1.984-0.691-2.943-0.642c-3.001,0.153-3.001,0.153-3.001,0.153c-1.816-1.776-3.302-2.69-3.302-2.032
			s-1.45,3.239-3.222,3.185s-5.737-2.157-5.96-1.832c0,0,0,0-0.259,0.257c-0.452,0.449-0.452,0.449-0.452,0.449
			c-0.508,0.435-2.444,0.667-4.302,0.516s-7.153-1.208-7.754-1.68c-0.601-0.472-2.433-0.523-2.512,0.197s-2.692,0.732-2.828,0.711
			c-0.136-0.021-0.551-1.371-0.732-3.098c0,0,0,0-2.775,1.636c-1.274,0.751-2.957,1.092-4.512,1.461c-0.8,0.19-0.8,0.19-0.8,0.19
			c-1.302-0.086-2.377-0.934-2.388-1.884c0,0,0,0,0.025-0.83c0.028-0.914,0.096-1.889-1.552-1.722
			c-1.716,0.174-0.884,1.336-1.102,2.093c-0.092,0.319-0.092,0.319-0.092,0.319c-0.326,0.646-0.919,0.731-1.316,0.19
			c-0.397-0.541-2.348-1.18-3.205,0.12c0,0,0,0-0.689,0.794c-0.304,0.351-0.955,0.728-1.413,0.701
			c-0.423-0.025-0.423-0.025-0.423-0.025c-0.393-0.476-0.956-1.564-1.25-2.419s-2.842-1.241-2.288-0.969
			c0.554,0.272-0.142,2.397-2.79,4.113c0,0,0,0-2.346-2.152c-0.927-0.85-0.927-0.85-0.927-0.85
			c-0.954,0.396-2.467,1.142-3.362,1.656s-5.538-1.229-5.953-1.418c0,0,0,0-0.375,0.007c-0.375,0.007-0.375,0.007-0.375,0.007
			c-0.407,0.201-0.589,0.542-0.405,0.757c0.185,0.215-1.494,1.412-4.365,1.923c0,0,0,0-1.544-0.749
			c-2.391-1.161-2.391-1.161-2.391-1.161c-2.287,0.433-3.953,0.358-3.702-0.166c0.251-0.525-1.155-3.485-3.862-5.036
			c0,0,0,0-3.59,1.918c-2.199,1.175-2.199,1.175-2.199,1.175c-3.614-1.055-5.756-1.848-4.76-1.763c0,0,0,0,0.084-0.178
			c1.032-2.196,1.032-2.196,1.032-2.196c2.22,0.453,4.314,0.909,4.654,1.014c0.34,0.104,0.591-1.732-1.796-1.551c0,0,0,0-1.31-0.779
			c-2.889-1.717-2.889-1.717-2.889-1.717c-0.872,1.708-1.655,2.807-1.74,2.442c-0.086-0.365-0.898-1.442-1.616-1.583
			s-2.325,1.208-2.498,1.567c-0.174,0.359-1.813,1.773-2.945,2.628c-1.131,0.855-2.845,4.935-3.017,4.119
			c-0.171-0.816-1.222-2.814-1.984-2.774c-0.763,0.04-3.26-0.286-3.811-0.487c-0.551-0.201-1.895,0.326-1.165,0.671
			c0.73,0.345,2.663,1.654,2.76,2.039c0,0,0,0-0.129,0.311c-0.083,0.2-0.614,0.469-0.824,0.412
			c-1.347-0.364-1.347-0.364-1.347-0.364c-1.744-0.568-3.17-1.565-3.17-2.217s-0.657-2.448-1.461-2.189s-1.448,2.762-1.744,3.468
			s-3.31,0.356-3.606,0.263c-0.296-0.093-0.977-1.828-0.08-3.411c0.897-1.582,1.252-4.784-0.062-3.218
			c-1.314,1.566-5.392,5.12-6.245,4.539c-0.852-0.581-2.744,1.285-3.132,1.945c-0.389,0.659-3.668,0.88-4.195,0.055
			c-0.527-0.825,3.728-2.312,4.853-2.71c1.124-0.398,4.365-1.609,4.617-1.993s0.473-1.841,0.363-2.294c0,0,0,0-0.235-0.051
			c-0.552-0.12-1.472-0.213-1.72,0.033c-0.911,0.902-0.911,0.902-0.911,0.902c-0.844,1.097-1.79,1.959-2.101,1.915
			c-0.311-0.044-1.205-0.659-1.26-1.245s-1.356-2.411-1.814-2.937c-0.459-0.527-1.928-1.764-2.248-1.567
			c-0.32,0.197-2.102,1.395-3.06,2.473c0,0,0,0,1.11,0.063c2.529,0.143,2.529,0.143,2.529,0.143c1.07,1.45,1.958,2.793,1.972,2.985
			c0.014,0.192-0.81,1.124-1.896,1.193c0,0,0,0-0.978,0.141c-0.8,0.115-0.8,0.115-0.8,0.115c-0.848,0.243-1.827,0.598-2.175,0.789
			c-0.349,0.191-1.706-0.58-2.213-0.195c-0.507,0.385-2.081,0.648-2.525-0.152c-0.444-0.799-3.009-2.636-4.371-1.686
			c0,0,0,0-0.933,0.659c-0.985,0.695-0.985,0.695-0.985,0.695c-0.795-0.54-2.645-1.556-4.111-2.258c0,0,0,0-0.919-1.16
			c-0.919-1.16-0.919-1.16-0.919-1.16c-1.444,0.723-3.264,1.608-4.044,1.966c0,0,0,0-0.41,0.491
			c-0.805,0.964-0.805,0.964-0.805,0.964c-0.779,1.287-2.602,1.949-4.051,1.472c-1.449-0.478-3.97-2.411-4.925-2.672
			c-0.955-0.261-3.22-0.439-2.832,0.624c0,0,0,0-0.329,0.301c-0.631,0.578-1.816,0.736-2.583,1.253
			c-0.195,0.132-0.195,0.132-0.195,0.132c0.383,0.732,0.362,1.467-0.048,1.633s-1.609-0.463-2.022-1.199s-3.965-2.734-6.708-2.376
			c0,0,0,0,0.255,3.07c0.072,0.862-3.082,1.258-3.646,0.412c-0.567-0.85-0.374-1.612,1.215-1.801c0.474-0.056,1.276-1.099,1.114-1.4
			c-0.655-1.22-0.655-1.22-0.655-1.22c-0.57,0.785-2.394,1.288-4.053,1.118c-1.659-0.17-6.092,1.309-6.656,1.044c0,0,0,0-0.58-0.101
			c-0.725-0.126-1.707-0.338-2.21-0.065c-2.045,1.113-2.045,1.113-2.045,1.113c-2.115-0.645-4.184-1.262-4.599-1.371
			s-2.419,0.117-4.209,0.262c0,0,0,0-1.4-0.964c-0.446-0.307-0.446-0.307-0.446-0.307c-0.871-0.247-1.724,0.089-1.894,0.746
			c-0.171,0.658-2.163,2.878-3.907,2.926c-1.744,0.048-6.479-0.251-6.659,0.06c0,0,0,0-0.211,0.282
			c-0.26,0.347-0.26,0.347-0.26,0.347c-0.324,0.363-0.707,0.374-0.851,0.024c0,0,0,0-0.213-0.276c-0.557-0.72-0.557-0.72-0.557-0.72
			c-0.6-0.706-2.499-0.53-4.221,0.392c0,0,0,0-0.224-0.189c-1.616-1.367-1.616-1.367-1.616-1.367
			c-1.13,0.884-2.586,1.416-3.237,1.181c-0.65-0.235-3.635,0.214-4.863-0.22c-1.228-0.434-5.317,1.06-6.347,1.289
			s-4.324-0.71-5.722,0.017c0,0,0,0-1.669-1.377c-1.245-1.027-1.245-1.027-1.245-1.027c-2.055,0.701-5.109,1.281-6.786,1.29
			c0,0,0,0-1.469,0.705c-1.506,0.722-1.506,0.722-1.506,0.722c-1.561-0.601-3.609-1.742-4.551-2.535c0,0,0,0-1.232,1.47
			c-1.072,1.279-2.12-0.619-3.157-0.624c-1.135-0.006-2.858,1.199-3.309,0.891c-1.731-1.182-3.616-1.062-5.493-0.94
			c-2.272,0.148-4.817-0.831-6.774,0.963c-0.201,0.184-0.201,0.184-0.201,0.184c-0.577-0.07-1.872-0.434-2.877-0.808
			c-1.005-0.375-5.308-0.847-7.334-0.205c0,0,0,0-1.728-0.252c-3.611-0.526-7.157-1.433-10.636-2.403
			c-0.76-0.212-1.079-1.378-1.703-2.042c-0.33-0.35-0.892-0.804-1.326-0.789c-0.849,0.03-1.781,0.634-2.486,0.466
			c-0.489-0.117-0.489-0.117-0.489-0.117c-0.28-0.878-1.535-1.888-2.788-2.243c-1.253-0.355-5.01,0.16-5.879,0.299
			c0,0,0,0-0.848-0.541c-1.795-1.144-4.014-1.429-7.669-1.422c-0.31,0-1.027-1.107-0.866-1.282c0.783-0.853,2.245-1.468-0.552-1.742
			c-1.268-0.124-1.146-1.292-0.2-2.02c0.471-0.362,0.471-0.362,0.471-0.362c0.451-0.43,0.524-1.311,0.162-1.957
			c-0.361-0.646,1.492-1.556,2.187-1.056c0.695,0.5,3.343-0.286,4.048,0.259c0,0,0,0,0.365,0.605
			c0.261,0.433-0.112,1.102,0.103,1.575c0.169,0.371,0.757,0.699,1.25,0.858c0.277,0.09,0.277,0.09,0.277,0.09
			c0.449-0.234,1.45-1.177,2.223-2.096c0.773-0.919,2.55-4.179,2.104-5.026s-4.425-0.094-5.539-0.409c0,0,0,0-0.137-0.49
			c-0.376-1.35-0.376-1.35-0.376-1.35c-0.881-1.256-1.975-1.755-2.432-1.11c-0.456,0.646-1.04,3.396-2.179,2.39
			c-1.139-1.006-5.973-2.484-6.713-3.077c-0.741-0.593,1.303-2.683,2.254-2.05c0.951,0.633,3.828,2.076,4.283,1.802
			s1.42-1.93,2.065-2.999c0,0,0,0,1.718,1.006c0.513,0.301,1.923,0.351,2.131,0.093c0.63-0.782,0.511-1.383-0.958-1.872
			c-1.09-0.362-1.09-0.362-1.09-0.362c-0.971-1.361-0.964-2.892,0.015-3.403c0,0,0,0,0.582-0.679
			c0.338-0.395,0.338-0.395,0.338-0.395c-0.219-0.769-0.795-1.58-1.279-1.802c-0.484-0.222-3.376-1.661-5.653-2.018
			c0,0,0,0-0.524,1.682c-0.837,2.689-0.837,2.689-0.837,2.689c-2.345-0.671-3.681-1.443-2.969-1.714s1.994-1.024,1.721-1.241
			c-0.273-0.217-1.791-1.465-2.804-2.312c0,0,0,0-0.965-0.731c-0.858-0.649-0.858-0.649-0.858-0.649
			c-1.116,0.309-2.956,0.071-4.089-0.529c0,0,0,0-1.161-0.199c-1.264-0.216-2.627-0.049-3.947-0.049c-2.2,0-4.457-0.252-6.582,0.072
			c-2.063,0.314-3.657-0.998-5.757-0.574c-1.043,0.21-2.523-0.477-3.594-1.03c-1.475-0.762-1.475-0.762-1.475-0.762
			c-1.727,0.002-4.925-0.262-7.106-0.586c-2.181-0.324-9.459-3.412-11.974-4.138c0,0,0,0-2.378-0.474
			c-1.616-0.322-1.616-0.322-1.616-0.322c-1.839-0.149-4.219-0.512-5.288-0.806c0,0,0,0-1.002-0.504
			c-4.021-2.022-4.021-2.022-4.021-2.022c0.648-2.206,1.547-4.877,1.999-5.934c0,0,0,0-2.991,0.466
			c-1.472,0.229-2.255-0.434-1.938-1.645c0.216-0.821,0.216-0.821,0.216-0.821c0.247-0.902,0.089-1.997-0.351-2.435
			c-0.44-0.437-1.511-1.89-0.928-2.168c0.584-0.278,2.724-1.715,3.538-2.566c0,0,0,0-1.658-0.504
			c-1.381-0.42-1.959-1.006-1.286-1.768c1.195-1.354,1.195-1.354,1.195-1.354c-1.136-0.703-2.956-4.02-4.045-7.372
			c0,0,0,0-2.475-2.646c-0.588-0.629-0.588-0.629-0.588-0.629c0.99-1.795,1.223-3.333,0.517-3.42
			c-0.706-0.086-1.77-0.916-0.884-1.662c0.887-0.746,0.022-3.371,0.67-3.521s2.424-1.714,1.902-3c0,0,0,0-0.442-1.203
			c-0.469-1.276-1.404-2.628-1.182-3.83c0.224-1.215,1.406-2.469,2.569-3.359c0.778-0.596,2.882-0.305,3.291-0.907
			c0.864-1.272,0.864-1.272,0.864-1.272c1.253,0.159,2.853,0.33,3.555,0.379s4.025-2.942,4.687-2.689
			c0.662,0.253,4.543-0.963,5.912-1.041c0,0,0,0,1.327-0.419c1.028-0.324,2.921,0.885,3.75,0.484
			c1.42-0.688,2.053-0.575,3.346,0.117c0.789,0.423,2.496,0.233,3.463-0.185c2.873-1.238,2.873-1.238,2.873-1.238
			c-0.293,1.449,1.728,0.977,4.49-1.05c0,0,0,0,4.058,0.633c0.654,0.102,0.654,0.102,0.654,0.102c0.855-0.478,2.016-0.67,2.58-0.427
			c0.564,0.244,3.821,0.099,6.151-1.633c0,0,0,0,3.313,1.523c1.028,0.473,3.709-0.912,4.288-0.413
			c1.839,1.584,1.839,1.584,1.839,1.584c1.395-0.89,3.899-2.248,5.563-3.016c0,0,0,0,1.419-0.285
			c1.452-0.292,3.445-0.293,4.973-0.037c2.543,0.427,4.743,0.935,7.217-0.335c1.928-0.99,1.928-0.99,1.928-0.99
			c2.59-0.111,4.934,0.141,5.208,0.56c0,0,0,0,0.307,0.347c0.612,0.693,0.612,0.693,0.612,0.693c0.724,0.757,1.97,0.43,2.769-0.726
			c0.799-1.156,6.492-0.194,8.334-0.081c1.842,0.112,7.286-2.134,8.679-2.219c0,0,0,0,1.31,0.046c3.03,0.107,4.59,0.005,5.927-0.479
			c0.557-0.202,1.142-0.607,1.666-0.561c0.998,0.088,0.998,0.088,0.998,0.088c0.889-0.399,2.703-1.005,4.03-1.347
			c0,0,0,0,1.114,0.235c0.918,0.193,0.918,0.193,0.918,0.193c0.83,0.953,1.463,0.621,1.406-0.739c0,0,0,0,2.567,0.376
			c1.551,0.227,3.494,0.652,4.888-0.695c0.09-0.087,0.854,0.09,0.864,0.178c0.105,0.897,0.179,1.993,1.682,1.587
			c0.698-0.189,0.855-1.575,1.581-1.847c1.653-0.619,3.495-1.173,5.28-1.217c2.066-0.051,2.066-0.051,2.066-0.051
			c2.352,0.255,5.041,0.185,5.974-0.156c0.933-0.341,4.232-0.788,5.088-0.698c0.856,0.09,3.668,0.176,4.009-0.102
			s1.756-1.051,1.885-0.694c0.129,0.357,1.323,1.177,2.284,0.797c0.961-0.38,4.11-1.079,4.702-0.644
			c0.592,0.435,2.956,1.57,3.548,1.271c0.593-0.3,1.778-1.772,2.429-2.474s3.764-0.344,4.865-0.651c0,0,0,0,1.135-0.022
			c1.409-0.027,1.409-0.027,1.409-0.027c1.63-0.036,4.376,0.218,6.101,0.565c0,0,0,0,1.641,0.2c0.441,0.054,1.005-0.053,1.384-0.249
			c3.566-1.846,3.566-1.846,3.566-1.846c2.138,1.345,3.971,1.988,4.074,1.428c0.103-0.56,1.203-2.039,2.139-1.628
			c0,0,0,0,0.733,0.154c0.715,0.15,0.715,0.15,0.715,0.15c0.842-0.01,2.364-0.818,3.382-1.796c0,0,0,0,1.712-0.13
			c0.674-0.051,0.674-0.051,0.674-0.051c0.736-0.828,0.664-2.097-0.159-2.82c0,0,0,0-0.898-0.207
			c-1.522-0.351-1.445,0.726-1.771,1.573c-0.128,0.333-1.477,0.386-2.283,0.51c-1.736,0.268-3.927,1.146-5.12,0.6
			c-1.984-0.909-3.806-0.414-5.668-0.559c-1.962-0.153-3.955-0.034-5.935-0.034c-1.98,0-3.984-0.159-5.933,0.038
			c-2.791,0.283-3.761-1.576-5.192-2.754c-1.67-1.375-1.67-1.375-1.67-1.375c-1.801,0.004-4.058,0.251-5.017,0.549
			c-0.959,0.298-2.451,0.387-3.187,0.485s-3.129-1.319-3.866-1.749c-0.736-0.43-3.661-1.369-4.192-0.812c0,0,0,0-0.363,0.609
			c-0.562,0.941-0.504,0.956,1.388,1.001c0.313,0.007,0.895,0.141,0.891,0.192c-0.039,0.488-0.081,1.356-0.302,1.392
			c-1.294,0.211-3.178,1.173-3.463-0.816C260,712.031,260,712.031,260,712.031c0.307-1.245,0.657-2.511,0.778-2.812
			c0.121-0.301,0.015-1.023-0.496-0.892c0,0,0,0-0.471,0.098c-0.599,0.124-1.204,0.23-1.809,0.337
			c-2.377,0.422-2.377,0.422-2.377,0.422c0.955,1.219,0.472,2.797-1.072,3.506s-6.24,0.691-6.297,0.15c0,0,0,0,0.127-0.461
			c0.207-0.753,0.207-0.753,0.207-0.753c0.358-0.805,0.166-1.42-0.426-1.368s-2.433-1.113-2.2-2.757c0,0,0,0-0.49-0.152
			c-4.539-1.412-4.539-1.412-4.539-1.412c0.904-3.072,2.769-5.32,4.143-4.995c0,0,0,0,0.997,0.316
			c0.945,0.3,1.808,0.806,2.774,1.016c0.518,0.113,1.294-0.079,1.75-0.356c1.144-0.694,1.144-0.694,1.144-0.694
			c1.437-0.094,3.36-0.81,4.273-1.593c0,0,0,0-0.052-0.666c-0.055-0.701-0.055-0.701-0.055-0.701
			c-1.013-0.675-2.837-1.253-4.054-1.285c0,0,0,0-0.791,0.427c-0.647,0.349-0.034,2.021-1.662,1.625
			c-1.143-0.279-1.143-0.279-1.143-0.279c-1.129-0.879-2.44-0.917-2.913-0.084c-0.472,0.833-3.279-0.107-3.15-0.37
			c0.129-0.263,0.098-1.166-0.497-1.166s-2.499,0.396-2.608,0.88c-0.109,0.484-0.803,1.89-1.254,1.842c0,0,0,0-0.087-0.154
			c-0.253-0.448-0.189-1.05-0.528-1.424c-1.36-1.496-1.36-1.496-1.36-1.496c-2.263,0.084-4.388,0.128-4.723,0.098
			c-0.335-0.03-0.849-1.929,0.849-4.016c0,0,0,0,2.412,1.167c1.853,0.897,1.853,0.897,1.853,0.897
			c2.066-0.054,3.799-0.854,3.851-1.776s-0.328-3.543-0.974-3.543c-0.646,0-2.415,0.421-1.809,0.936c0,0,0,0,0.178,0.453
			c0.17,0.432,0.17,0.432,0.17,0.432c-0.155,0.709-1.25,1.047-2.433,0.752c-1.183-0.296-3.168-1.467-1.777-1.945
			c0,0,0,0,0.049-0.464c0.071-0.678-0.799-1.497-1.483-2.092c-0.148-0.129-1.236,0.666-1.841,0.617
			c-0.633-0.05-1.272-0.555-1.745-0.981c-0.091-0.082,0.552-0.74,0.917-1.091c0.092-0.088,0.092-0.088,0.092-0.088
			c0.301,0.044,2.343,0.376,4.537,0.738s8.087-1.384,8.665-1.01c0,0,0,0,0.499-0.04c0.65-0.052,1.286-0.477,1.852-0.824
			c0.172-0.105,0.216-0.535,0.098-0.724c-0.185-0.297-0.185-0.297-0.185-0.297c-0.367-0.261-0.174-0.68,0.427-0.932
			s2.678-0.683,3.132-0.338c0.454,0.345,2.091,1.029,2.526,0.674c0.435-0.354,2.291-0.589,2.975,0.413
			c0.684,1.002,2.589,3.6,2.723,3.565c0.135-0.034,0.121-1.68-0.331-3.581c0,0,0,0-0.183-1.744
			c-0.038-0.362-0.038-0.362-0.038-0.362c0.83-0.458,1.9-0.542,2.378-0.186c0,0,0,0,0.191,0.401c0.51,1.068,0.51,1.068,0.51,1.068
			c0.542,1.467,1.705,1.128,2.585-0.753c0,0,0,0,1.186-0.923c1.383-1.077,1.383-1.077,1.383-1.077
			c0.697-1.408,1.482-2.285,1.744-1.949c0.262,0.336,2.136,1.468,3.344,1.466c0,0,0,0,1.097,0.47
			c1.044,0.447,1.044,0.447,1.044,0.447c1.636,0.245,2.975-0.103,2.975-0.774s0.462-2.009,1.028-1.722c0,0,0,0,0.543,0.211
			c1.261,0.489,2.526,1.245,3.819,1.288c0.637,0.021,1.303-1.865,2.021-1.897c1.288-0.056,1.288-0.056,1.288-0.056
			c1.529,0.032,3.134,0.225,3.566,0.429c0.432,0.204,2.179-0.178,2.085-1.627c0,0,0,0,0.216-0.988c0.243-1.11,0.243-1.11,0.243-1.11
			c0.568-1.177,3.324-1.41,6.126-0.518c0,0,0,0,3.196-2.444c1.911-1.461,3.515-4.002,6.873-1.521
			c0.106,0.078,0.106,0.078,0.106,0.078c1.433-1.093,3.247-1.406,4.03-0.696c0,0,0,0,0.869,0.516
			c0.417,0.247,0.417,0.247,0.417,0.247c0.689-0.036,2.058-0.075,3.043-0.087c0.984-0.013,4.064-1.217,5.278-1.521
			c1.214-0.304,5.699-0.485,7.212-0.536c1.513-0.051,5.019-1.839,5.864-1.172s2.77,2.707,2.609,3.213
			c-0.162,0.507,0.273,2.258,1.504,2.205c0,0,0,0,1.213,0.117c1.978,0.191,1.978,0.191,1.978,0.191
			c1.214-1.113,2.823-2.863,3.577-3.89c0.753-1.027,3.334-3.571,3.898-3.16c0,0,0,0,0.457,0.213
			c2.306,1.071,2.306,1.071,2.306,1.071c-0.352,1.203-1.29,2.611-2.085,3.127c0,0,0,0-0.313,0.607
			c-0.249,0.483-0.249,0.483-0.249,0.483c0.287,0.723,0.865,1.227,1.285,1.12c0.42-0.107,2.639-1.607,4.383-2.824
			c0,0,0,0,2.366,0.901c0.679,0.258,0.679,0.258,0.679,0.258c0.681,0.359,1.797-0.292,2.479-1.447s3.397-3.968,4.332-3.368
			c0,0,0,0,0.913,0.214c1.627,0.381,1.627,0.381,1.627,0.381c1.429,0.854,3.222,1.683,3.984,1.842
			c0.763,0.159,0.696,2.476,1.042,2.843s1.647,0.477,1.883,0.96c0.236,0.483,2.145-0.23,2.382-1.004s3.464-0.567,4.159-0.421
			s3.325-0.935,5.707-0.44c0,0,0,0,2.249,0.214c2.118,0.202,2.118,0.202,2.118,0.202c2.288,0.51,4.549,0.261,5.024-0.553
			S392.707,666.399,392.949,665.809z M1319.792,689.239c1.014-1.417,0.326-3.132-1.53-3.811c0,0,0,0-1.56-0.25
			c-2.316-0.371-2.316-0.371-2.316-0.371c-2.606-0.167-3.975,0.249-3.044,0.925C1312.274,686.41,1318.777,690.656,1319.792,689.239z
			 M1343.167,703.326c0.38-0.355,0.005-2.268-0.833-4.252c0,0,0,0-3.484-0.042c-3.287-0.039-3.287-0.039-3.287-0.039
			c-1.53,1.926-1.856,4.391-0.724,5.478c0,0,0,0,0.555-0.116c1.464-0.307,1.464-0.307,1.464-0.307
			c1.458-0.826,2.998-1.219,3.422-0.873S1342.787,703.68,1343.167,703.326z M1359.344,821.41c0.615,0.139,1.942-0.911,2.947-2.332
			s-2.132-4.83-1.641-5.114c0,0,0,0-0.024-0.225c-0.122-1.13-0.122-1.13-0.122-1.13c-1.493-0.402-2.93-0.429-3.193-0.059
			c-0.263,0.37,0.681,2.002,1.043,2.665c0.362,0.663-0.212,2.587,0.403,3.347C1359.373,819.322,1358.729,821.272,1359.344,821.41z
			 M283.78,697.788c-0.052,0.826-0.813,1.131-1.69,0.678c-0.878-0.453-0.285,1.652,1.851,1.564c0,0,0,0,1.879,0.194
			c3.596,0.371,3.596,0.371,3.596,0.371c1.275-1.714,1.392-2.917,0.26-2.672s-4.276-0.425-4.452-0.987s-0.709-1.928-0.831-1.911
			C284.271,695.044,283.832,696.962,283.78,697.788z M330.14,673.419c0.805-1.458-0.508-2.594-2.919-2.524c0,0,0,0-1.496-1.5
			c-0.07-0.071-0.07-0.071-0.07-0.071c-0.921,0.506-1.848,1.467-2.059,2.136c-0.212,0.669,2.824,2.03,3.713,2.226c0,0,0,0,0,0.182
			c0.003,1.661,0.649,2.014,1.895,0.608C330.14,673.419,330.14,673.419,330.14,673.419z M1264.494,675.29
			c-0.056-0.953-0.39-1.225-0.742-0.604c-0.352,0.621-1.904,1.483-2.875,0.908c-0.971-0.575-4.292-0.875-3.934-0.55
			c0.359,0.325,0.586,1.197,0.062,1.536c-0.525,0.339-0.848,1.375,1.693,0.74c0,0,0,0,1.105,0.425
			c1.581,0.608,1.581,0.608,1.581,0.608C1263.191,678.289,1264.55,676.243,1264.494,675.29z M1360.594,799.874
			c0.849,0.488,1.752,0.264,2.007-0.498c0.255-0.762-1.46-3.27-1.841-3.96c0,0,0,0-1.106,0.906
			c-2.061,1.688-2.061,1.688-2.061,1.688c-1.799-0.387-3.716-0.689-4.26-0.67c0,0,0,0-0.193,0.211
			c-0.183,0.2-0.115,0.82,0.113,0.957c1.148,0.686,2.392,1.264,3.584,1.902c0.34,0.182,0.34,0.182,0.34,0.182
			C1357.5,800.854,1359.746,799.385,1360.594,799.874z M301.907,675.432c1.67,0.416,3.014,0.504,2.986,0.195
			c-0.028-0.308,0.335-1.722,0.655-2.363s-0.704-1.28-1.709-0.558c0,0,0,0-1.713-0.987c-1.554-0.895-2.059,1.06-3.109,1.646
			c-1.09,0.609-0.887,1.417,0.028,2.156c0.734,0.593,1.18,1.233,2.399,0.274C301.907,675.432,301.907,675.432,301.907,675.432z
			 M1235.355,782.523c-0.59,0.48-0.021,0.697,1.264,0.482c1.285-0.215,4.72,1.926,6.134,1.878c1.414-0.048,1.848-2.945,0.301-3.083
			C1241.507,781.662,1235.945,782.043,1235.355,782.523z M914.863,843.565c-0.748-0.336-1.36-0.026-1.36,0.69
			s-0.348,2.459-0.772,2.415c-0.425-0.044-1.879,0.183-1.857,0.647c0.022,0.464,0.193,1.734,0.273,1.803
			c0.079,0.069,3.066-0.255,6.448-0.873c0,0,0,0-0.181-1.216c-0.118-0.795-0.118-0.795-0.118-0.795
			C917.33,845.383,915.611,843.901,914.863,843.565z M1176.164,655.388c0.828,0.659,2.316,0.304,3.307-0.789c0,0,0,0,0.276-0.89
			c0.199-0.643-0.228-1.534-0.688-2.162c-0.599-0.817-1.495-1.164-2.684-0.416c-0.897,0.564-0.897,0.564-0.897,0.564
			C1174.027,652.27,1175.336,654.729,1176.164,655.388z M1148.874,655.542c1.779-0.384,3.007-1.293,2.729-2.019
			c-0.278-0.726-3.289-1.818-4.085-1.5C1146.722,652.341,1147.096,655.926,1148.874,655.542z M1375.575,807.375
			c0.365-1.186-0.724-1.705-2.421-1.154c0,0,0,0-1.362,0.669c-1.08,0.531-2.057,1.266-0.315,2.279
			c0.466,0.271,0.466,0.271,0.466,0.271C1372.129,810.526,1375.21,808.561,1375.575,807.375z M422.215,666.032
			c-1.566,0.685-0.843,1.727,1.607,2.315c0,0,0,0,1.704,0.545c1.684,0.538,2.342-0.519,3.138-1.239
			c0.323-0.292,0.301-0.954,0.191-1.409c-0.083-0.347-4.852-0.969-5.369-0.75C422.215,666.032,422.215,666.032,422.215,666.032z
			 M249.645,690.728c-0.191-0.712-0.989-1.324-1.772-1.36s-2.399,0.55-3.549,1.12c-1.151,0.57-2.679,3.425-2.631,3.821
			c0,0,0,0,0.252,0.203c0.253,0.203,0.253,0.203,0.253,0.203c0.479,0.032,2.811-1.101,5.182-2.518c0,0,0,0,2.09-1.357
			C249.645,690.728,249.645,690.728,249.645,690.728z M410.618,669.32c-0.114,0.714,0.703,0.94,1.816,0.503s3.919-2.014,4.332-2.639
			c0,0,0,0-0.744-0.793c-0.545-0.581-0.106-1.905-1.724-1.626c-1.536,0.265-1.536,0.265-1.536,0.265
			C411.78,666.153,410.732,668.607,410.618,669.32z M875.306,658.584c1.401,0.699,1.525,0.671,0.275-0.062s-4.078-3.039-4.476-2.246
			s0.195,3.285,2.091,3.998c0,0,0,0,0.418-0.335C875.306,658.584,875.306,658.584,875.306,658.584z M505.684,667.086
			c0.088,0.654,0.908,0.425,1.822-0.509c0.914-0.934,1.206-3.844-0.021-3.601s-4.164,1.159-4.232,1.409
			c-0.068,0.25,0.113,0.897,0.538,0.848S505.595,666.433,505.684,667.086z M678.896,660.932c-3.054-0.222-4.617,0.663-3.472,1.966
			c0,0,0,0,1.79-0.343c1.73-0.332,3.406-0.886,5.039-1.467c0.208-0.074,0.123-0.923-0.043-1.358
			c-0.073-0.192-0.881-0.436-1.03-0.336C678.896,660.932,678.896,660.932,678.896,660.932z M231.258,828.429
			c0.594-1.096,0.906-2.856,0.691-3.911c0,0,0,0-1.779,0.394c-0.597,0.132-1.328,1.466-1.68,0.25
			c-0.402-1.392-0.863-1.978-2.371-1.13c-0.248,0.14-0.248,0.14-0.248,0.14c0.556,1.071,1.861,2.572,2.898,3.334
			c0,0,0,0,1.117,0.415C231.258,828.429,231.258,828.429,231.258,828.429z M1215.17,775.508c0.373-0.683-0.659-1.393-2.293-1.578
			c0,0,0,0-0.977,0.424c-1.095,0.475-1.095,0.475-1.095,0.475c-0.762,1.137-0.966,2.664-0.454,3.393c0,0,0,0,0.614,0.064
			c0.852,0.089,0.852,0.089,0.852,0.089C1212.799,777.93,1214.797,776.192,1215.17,775.508z M1044.868,655.05
			c0.699-0.993,0.252-1.378-0.995-0.853s-4.375,0.125-4.905,0.523c0,0,0,0,0.001,0.361c0.002,0.762-0.668,1.802,0.974,2.156
			c0.885,0.191,0.885,0.191,0.885,0.191C1041.843,657.835,1044.169,656.044,1044.868,655.05z M1238.505,676.989
			c-1.546-1.183-1.628-1.476-0.181-0.651c1.447,0.825,6.017,2.047,6.408,1.78c0.391-0.267-0.202-1.782-2.391-2.586
			c0,0,0,0-1.173,0.446C1238.505,676.989,1238.505,676.989,1238.505,676.989z M1076.262,657.127c1.238,0.694,2.221,0.901,2.184,0.46
			c-0.037-0.441,0.25-1.732,0.429-2.096c0.179-0.364-0.389-1.637-1.848-1.711C1075.569,653.706,1075.024,656.433,1076.262,657.127z
			 M893.206,657.477c-1.236,0-0.983,1.053,0.563,2.34c0,0,0,0,1.622,0.476c0.492,0.144,0.492,0.144,0.492,0.144
			C897.437,658.809,894.442,657.477,893.206,657.477z M416.416,830.244c-1.38,0-2.173,0.675-1.762,1.5
			c0.41,0.825,2.508,2.415,3.88,1.962S417.795,830.244,416.416,830.244z M1248.344,793.737c0.209,0.212-0.268,0.845-1.06,1.408
			c-0.791,0.563-0.988,2.271,0.232,1.777c0,0,0,0,1.04-0.401c1.256-0.484,1.256-0.484,1.256-0.484
			c1.684-0.409,2.266-1.395,1.294-2.193c0,0,0,0-0.844-0.67c-0.298-0.236-0.643-0.621-0.958-0.615
			c-0.575,0.01-0.575,0.01-0.575,0.01C1248.103,792.791,1248.136,793.525,1248.344,793.737z M1228.947,777.35
			c1.702-0.094,2.268-0.707,1.258-1.361c-1.01-0.654-4.72-0.038-6.093,0.176C1222.737,776.378,1227.245,777.444,1228.947,777.35z
			 M840.097,659.252c1.704,1.386,3.576,0.541,4.159-1.879c0,0,0,0-2.929-1.124c-0.67-0.257-0.67-0.257-0.67-0.257
			c-1.431,0.86-2.375,1.763-2.098,2.006c0,0,0,0,0.15,0.122C840.097,659.252,840.097,659.252,840.097,659.252z M364.426,692.322
			c-0.629,0.455-0.612,1.174,0.038,1.6c0.65,0.425,3.443,1.585,4.528,1.831c0,0,0,0,1.014,0.088c0.285,0.025,0.769-0.325,0.903-0.59
			c0.148-0.293,0.171-0.865-0.049-1.005c-1.466-0.935-1.466-0.935-1.466-0.935C367.677,692.427,365.055,691.868,364.426,692.322z
			 M274.59,699.685c-2.079-2.108-4.251-2.082-6.821-1.169C270.577,702.011,270.591,702.013,274.59,699.685z"/>
	</g>
	<g>
		<path fill="#6FB2A5" d="M1372.456,796.126c-1.225-0.641-1.324-1.304-0.22-1.474c1.103-0.17,5.059-2.394,6.817-3.265
			c0,0,0,0,0.557,2.51c0.083,0.374,0.083,0.374,0.083,0.374c1.388,0.178,3.182,0.069,3.989-0.242
			c0.806-0.31,4.118-0.358,5.371,0.717c0,0,0,0-0.478,1.592c-0.076,0.254-1.078,0.386-1.671,0.44
			c-0.185,0.017-0.66-0.46-0.605-0.621c0.168-0.493,1.728-0.784,0.366-1.443c-0.361-0.175-0.361-0.175-0.361-0.175
			c-0.738,0.308-2.523,1.422-3.966,2.474c0,0,0,0-1.092,1.105c-1.401,1.418-1.401,1.418-1.401,1.418
			C1378.031,799.155,1373.68,796.767,1372.456,796.126z"/>
	</g>
	<g>
		<path fill="#6FB2A5" d="M392.119,664.192c0.698,0.299,1.072,1.026,0.83,1.617c-0.242,0.591-2.119,2.276-3.634,2.432
			c-1.514,0.156-5.405-0.635-6.364-0.642c-0.959-0.006-3.132,1.637-3.583,1.887c-0.451,0.251-0.718-1.48,0.629-4.043
			c0,0,0,0,2.924-1.304c0.517-0.231,0.517-0.231,0.517-0.231c0.619-0.115,2.005-0.218,3.08-0.23S391.421,663.893,392.119,664.192z"
			/>
	</g>
	<g>
		<path fill="#6FB2A5" d="M1286.309,785.367c-1.75-0.79-3.182-1.759-3.182-2.152s0.39-1.643,0.867-1.9
			c0.477-0.258,1.98-1.246,2.431-1.496s2.668,0.499,3.596,0.79c0.928,0.292,3.036,0.591,2.874,2.785c0,0,0,0-2.726-0.734
			c-0.756-0.203-1.418-0.64-2.175-0.837c-0.204-0.053-0.74,0.331-0.87,0.597c-0.143,0.293-0.152,0.881,0.056,0.99
			c0.665,0.347,1.582,0.415,2.154,0.821c0.338,0.24,0.466,1.055,0.219,1.357c-0.261,0.32-1.243,0.603-1.626,0.445
			C1286.309,785.367,1286.309,785.367,1286.309,785.367z"/>
	</g>
	<g>
		<path fill="#6FB2A5" d="M277.21,673.436c2.91-0.061,5.554,0.919,5.875,2.178c0,0,0,0-2.192-0.16
			c-0.784-0.057-0.784-0.057-0.784-0.057c-0.835-0.25-2.483-0.577-3.662-0.726s-3.738,2.573-4.411,3.427s-1.893-2.126-2.339-2.344
			c-0.446-0.217-1.395-1.182-0.612-1.466s3.304-1.522,4.327-1.846c0,0,0,0,1.421,0.372
			C277.21,673.436,277.21,673.436,277.21,673.436z"/>
	</g>
	<g>
		<path fill="#6FB2A5" d="M1210.366,648.907c0.864-0.842,3.016-1.049,4.782-0.461c0,0,0,0,0.399-0.315
			c1.443-1.138,1.664,0.494,2.513,0.505c1.293,0.016,2.59,0.057,3.87,0.187c0.2,0.02,0.512,0.615,0.425,0.864
			c-0.115,0.33-0.115,0.33-0.115,0.33c-0.422,0.295-1.208,0.251-1.747-0.099c-0.539-0.35-2.926,0.665-3.767,0.968
			c0,0,0,0-0.147-0.15c-1.965-2.004-3.258-0.692-4.689,0.485c-0.244,0.2-1.142,0.23-1.319,0.057
			c-0.411-0.403-0.946-1.129-0.751-1.456C1210.366,648.907,1210.366,648.907,1210.366,648.907z"/>
	</g>
	<g>
		<path fill="#6FB2A5" d="M1300.949,781.347c1.146,0.53,1.174,1.614,0.062,2.409c-1.112,0.795-2.864,2.823-3.324,2.118
			c-0.46-0.705-0.483-3.848,0.529-5.419c0,0,0,0,1.797,0.587C1300.949,781.347,1300.949,781.347,1300.949,781.347z"/>
	</g>
	<g>
		<path fill="#6FB2A5" d="M238.751,707.395c-0.022,1.29-1.165,2.493-2.54,2.673c-1.375,0.18-3.018-2.398-1.92-2.338
			c0,0,0,0,0.412,0.353c0.832,0.713,1.245,0.541,1.916-0.086c0.559-0.522,1.182-0.809,0.237-1.563
			c-0.386-0.308-0.386-0.308-0.386-0.308c0.132-0.801,0.965-1.427,1.851-1.391c0,0,0,0,0.587,0.308
			c0.765,0.402,1.795,0.869,0.441,1.898C238.751,707.395,238.751,707.395,238.751,707.395z"/>
	</g>
	<g>
		<path fill="#6FB2A5" d="M290.385,670.922c0.02,0.731-0.407,1.266-0.949,1.189c0,0,0,0-0.282,0.166
			c-0.885,0.521-1.604,1.564-2.503,1.655c-1.331,0.135-1.331,0.135-1.331,0.135c-1.55-0.408-2.031-1.324-1.07-2.036
			C285.211,671.32,290.364,670.191,290.385,670.922z"/>
	</g>
	<g>
		<path fill="#6FB2A5" d="M337.087,668.921c-0.855,0.06-1.555-0.512-1.555-1.271c0-0.759,0.435-2.868,0.967-2.834
			c0.532,0.034,1.997,0.605,3.253,1.185c1.256,0.58-0.174,3.546-0.979,3.202c0,0,0,0-0.844-0.141
			C337.087,668.921,337.087,668.921,337.087,668.921z"/>
	</g>
	<g>
		<path fill="#6FB2A5" d="M428.58,844.555c1.67,0.008,1.114,0.989-1.234,2.181c0,0,0,0-2.627-0.588c-0.448-0.1-0.448-0.1-0.448-0.1
			c-0.253-0.822,0.983-2.127,2.747-2.9c0,0,0,0,0.291,0.262C428.58,844.555,428.58,844.555,428.58,844.555z"/>
	</g>
</g>
</svg>
